<svg width="93" height="93" xmlns="http://www.w3.org/2000/svg" version="1.1">
 <g>
  <title>Layer 1</title>
  <path transform="rotate(-90, 46.5, 46.5)" id="svg_1" d="m88.8771,10.70211l-6.5781,-6.5938c-1.8281,-1.8125 -4.7969,-1.8125 -6.6094,0.01562l-2.1875,2.1875l-4.4062,4.39061l-15.141,15.14099c-1.0781,1.09381 -1.8125,2.46881 -2.125,3.9844l-0.59375,2.98441c-0.03125,0.125 -0.09375,0.23438 -0.17188,0.32811l-3.2812,3.2812c-0.125,0.125 -0.28125,0.1875 -0.45312,0.1875l-2.5625,0c-1.0156,0 -1.9531,0.39062 -2.6719,1.0938c-1.2969,1.3125 -1.4375,3.3594 -0.40625,4.8125l-2.2344,2.2344c-0.8125,0.8125 -1.0781,1.96881 -0.79688,3l-24.203,24.203l-6.2344,2.07811c-0.40625,0.125 -0.71875,0.40625 -0.90625,0.78125l-4.3906,8.7812c-0.3125,0.60938 -0.1875,1.3281 0.28125,1.8125l4.3906,4.3906c0.3125,0.29688 0.70312,0.45312 1.1094,0.45312c0.23438,0 0.48438,-0.04688 0.70312,-0.17188l8.7812,-4.39061c0.375,-0.1875 0.65625,-0.5 0.78125,-0.90625l2.0781,-6.23439l24.203,-24.203c0.26562,0.09375 0.53125,0.125 0.79688,0.125c0.79688,0 1.5938,-0.3125 2.2031,-0.92189l2.2188,-2.2188c0.625,0.4375 1.375,0.67188 2.1719,0.67188c1,0 1.9375,-0.39061 2.6562,-1.0938c0.70312,-0.71875 1.0938,-1.6562 1.0938,-2.6719l0,-2.5625c0,-0.17188 0.0625,-0.32812 0.1875,-0.45312l3.2812,-3.2812c0.09375,-0.09375 0.20312,-0.14061 0.32812,-0.17188l2.9844,-0.59375c1.5156,-0.3125 2.8906,-1.0469 3.9844,-2.125l15.141,-15.141l4.3906,-4.40619l2.1875,-2.1875c1.8281,-1.8281 1.8281,-4.7812 0,-6.6094l0.00001,0.00016zm-16.469,12.094l-10.984,10.984c-0.29688,0.3125 -0.70312,0.45312 -1.0938,0.45312s-0.8125,-0.14062 -1.1094,-0.45312c-0.60938,-0.60938 -0.60938,-1.5938 0,-2.2031l10.984,-10.984c0.60938,-0.60938 1.5938,-0.60938 2.2031,0s0.60938,1.5938 0,2.2031l0.0001,0zm-53.828,53.797c-0.17188,0.17188 -0.29688,0.39062 -0.375,0.625l-1.9844,5.9688l-7.2031,3.5938l-2.7969,-2.7969l3.5938,-7.2031l5.9688,-1.9844c0.23438,-0.07812 0.45312,-0.20312 0.625,-0.375l24.141,-24.156l2.1875,2.1875l-24.1567,24.1403zm27.469,-25.25l-4.3906,-4.375l2.1875,-2.2031l4.3906,4.3906l-2.1875,2.1875zm35.141,-30.766l-8.7656,-8.7656l2.1719,-2.1875l8.7812,8.7812l-2.1875,2.1719z"/>
  <text id="svg_2" fill="#000000" font-family="Arbeit Regular, Helvetica, Arial-Unicode, Arial, Sans-serif" font-weight="bold" font-size="5" y="117.5" x="0">Created by Yasa Design Studio</text>
  <text id="svg_3" fill="#000000" font-family="Arbeit Regular, Helvetica, Arial-Unicode, Arial, Sans-serif" font-weight="bold" font-size="5" y="122.5" x="0">from Noun Project</text>
 </g>

</svg>