<?xml version="1.0" encoding="UTF-8" standalone="no"?>
<svg
   version="1.1"
   width="4.0623503in"
   height="3.1395149in"
   viewBox="0 0 2437.4053 1883.7052"
   id="svg1"
   sodipodi:docname="spacebar.svg"
   inkscape:version="1.4.3 (0d15f75042, 2025-12-25)"
   xmlns:inkscape="http://www.inkscape.org/namespaces/inkscape"
   xmlns:sodipodi="http://sodipodi.sourceforge.net/DTD/sodipodi-0.dtd"
   xmlns="http://www.w3.org/2000/svg"
   xmlns:svg="http://www.w3.org/2000/svg">
  <defs
     id="defs1" />
  <sodipodi:namedview
     id="namedview1"
     pagecolor="#505050"
     bordercolor="#eeeeee"
     borderopacity="1"
     inkscape:showpageshadow="0"
     inkscape:pageopacity="0"
     inkscape:pagecheckerboard="0"
     inkscape:deskcolor="#505050"
     inkscape:document-units="in"
     inkscape:zoom="1.1310841"
     inkscape:cx="119.35452"
     inkscape:cy="146.76186"
     inkscape:window-width="1920"
     inkscape:window-height="1132"
     inkscape:window-x="0"
     inkscape:window-y="0"
     inkscape:window-maximized="1"
     inkscape:current-layer="svg1" />
  <g
     id="g2">
    <path
       id="path1"
       d="M 281.99015,9.7637771e-4 C 280.1966,0.11042638 268.62288,10.709447 239.64405,40.686931 c -4.55388,10.14891 -39.95352,30.31332 -60.4369,44.65324 -12.45113,-7.35237 -26.71149,-72.75558 -50.84218,-29.30902 -16.48411,33.84056 -33.927621,67.557829 -44.457921,103.735139 -7.39812,28.56479 -26.471126,61.49897 -5.7617,88.74494 9.14218,17.47701 37.536841,13.35167 10.37595,48.91348 C 61.714979,344.34065 -27.981117,484.25812 8.6752729,532.09221 33.823873,576.46397 82.185519,547.26804 97.652139,511.36471 115.1898,480.0286 131.8053,445.07282 136.72677,409.87566 c 8.05214,-3.09912 22.95436,33.70712 2.05078,45.15371 -11.82086,29.7918 -32.10705,55.30894 -44.689851,84.88753 -13.85748,22.71765 -20.42955,48.61937 -23.03463,74.7435 -9.10584,37.28585 -16.264726,76.49071 -9.21629,114.72145 12.94966,31.8825 1.6539,-29.69024 16.44284,4.21142 2.81032,3.82502 5.24488,7.4187 7.33641,11.10838 -0.069,-0.005 -0.14131,0.0109 -0.1831,0.0244 -0.006,0.003 -0.031,0.0213 -0.0366,0.0244 l -0.0122,0.0122 -0.0122,0.0122 -0.0122,0.0122 v 0.0122 l -0.0122,0.0122 c -0.002,0.005 -0.011,0.0309 -0.0122,0.0366 -6.6e-4,0.006 1.3e-4,0.0303 0,0.0366 0.0187,0.30561 0.58606,0.90822 0.93994,1.02539 5.08566,9.35887 8.02104,19.51398 9.28953,35.59563 -9.82162,24.44804 10.677711,47.79177 7.775871,72.65611 5.87609,3.50218 12.54764,-18.26774 12.12156,-5.81054 2.10069,-26.44002 39.2207,-36.3214 47.10683,-63.43981 13.27284,-21.33826 20.83283,-46.11727 27.70991,-70.30016 3.60019,-6.49328 6.78735,5.625 8.06883,5.7373 0.014,-2.5e-4 0.0475,-0.009 0.061,-0.0122 0.0133,-0.005 0.0482,-0.0164 0.061,-0.0244 0.4341,-0.33273 0.58565,-2.60824 0.36621,-8.54491 1.59247,-25.9282 4.43924,-51.46953 8.50829,-76.84311 -2.73187,-2.13107 -8.20281,-18.73777 -12.67088,-26.44037 -4.02957,-24.74339 -14.84836,-88.78542 3.52783,-65.6737 7.35592,24.40135 22.71233,57.5301 53.07606,53.33241 33.45734,4.2248 64.95536,-15.75412 89.5384,-36.7553 13.54278,-19.96523 18.75235,-52.78281 3.03954,-72.97348 -10.71773,-12.49736 -17.24586,-27.83472 -28.51557,-39.48967 -9.93119,-22.78592 -19.93841,-44.06523 12.48777,-31.29876 31.1849,6.2535 63.25575,10.56888 93.59112,19.01851 18.0012,-2.06666 38.71691,-4.82268 52.56338,-17.4316 12.3637,-15.14923 27.02769,-28.5961 32.10442,-48.29092 1.63006,-15.15081 19.35836,-41.1305 -3.3081,-46.02042 -27.24105,3.48487 -54.80905,-3.89228 -82.33626,-5.00487 -27.21756,-2.03843 -53.90981,-6.03447 -81.0179,-7.70262 -13.53479,-15.61272 41.56939,-4.35 52.90517,-23.29097 33.13243,-12.63926 41.26376,-52.74574 -4.57763,-61.99939 -32.66969,-11.63293 -122.69258,-10.65569 -89.79474,-26.96528 17.18753,-11.2301 28.83566,-29.75658 37.2802,-47.08242 11.60152,-24.67243 -6.17299,-35.19538 -22.8149,-47.82705 -8.86335,-7.878429 -27.13866,-10.366889 -18.07858,-30.785889 5.78518,-23.62708 4.93368,-60.45474 -12.12155,-71.81402462 0.0259,-0.12277 0.0242,-0.23576 0,-0.30517 -0.002,-0.005 -0.0217,-0.0316 -0.0244,-0.0366 v -0.0122 l -0.0122,-0.0122 -0.0122,-0.0122 -0.0122,-0.0122 c -0.005,-0.003 -0.0317,-0.01 -0.0366,-0.0122 l -0.0122,-0.0122 c -0.0338,-0.0115 -0.0749,-0.0151 -0.12207,-0.0122000023 z M 281.79484,11.231421 c 10.5728,-0.528974 16.56726,50.09321 3.27148,64.68494 -0.31096,1.18539 -2.30822,3.44261 -2.74087,4.45149 -11.12941,-6.64367 -45.78335,-12.38096 -47.21592,-20.44187 2.75121,-7.77676 18.11987,-24.61532 29.1837,-37.46083 -4.28722,9.85301 -8.74648,24.91431 -9.53691,36.93513 8.50301,0.99669 10.07847,-23.31552 16.94333,-32.33637 3.5139,-11.12483 6.99811,-15.67753 10.09519,-15.83249 z m -134.44797,40.68597 c 8.01389,19.2837 16.26263,38.48442 26.00092,57.006719 19.50232,-20.899079 46.17243,-45.671659 77.51449,-34.081959 15.86411,4.47391 26.14649,7.88043 31.62923,12.76802 -12.18467,17.364369 -26.20777,2.36435 -64.66139,17.993629 -34.57458,20.25205 -65.11393,41.72116 -78.19808,78.17368 -6.4725,26.45375 16.38447,41.51975 43.45694,43.94522 25.2263,-0.89498 34.98704,-1.661 61.86511,-7.97118 59.51811,-13.50837 -11.68987,20.03351 -23.58393,34.75335 -16.88872,15.49383 -40.61959,19.93999 -58.3617,33.41058 -10.2901,30.13343 20.02899,65.81782 49.16982,44.04288 24.99068,-21.63912 69.4608,-22.79525 77.81967,-60.72986 18.04725,19.71427 39.80578,45.07301 35.32708,73.59605 -9.71066,21.57669 8.96513,31.29981 8.5449,2.6245 -4.56783,-28.79234 24.17315,-26.93645 42.80997,-20.64205 29.92451,2.87239 60.12818,4.28604 89.66047,10.10741 -14.95421,8.74893 -26.1519,20.93871 -34.20403,36.20598 -8.01049,14.89183 -13.44638,31.13565 -16.79685,47.80264 -18.94819,-6.19157 -39.62326,-7.03714 -59.2406,-12.56101 -17.97882,-4.80186 -36.22784,-7.84847 -54.54091,-9.87547 -6.64605,-14.89077 -11.63875,-45.86161 -16.88229,-12.56101 4.16311,32.42893 18.08754,64.54818 37.7929,90.84454 13.03514,14.54278 24.65649,32.24512 -3.51562,16.3696 -4.29188,-1.33908 -8.86194,-2.43977 -13.53757,-3.21044 l 0.0122,-0.0122 h 0.0122 0.0122 c 0.005,-0.002 0.032,-0.0219 0.0366,-0.0244 h 0.0122 l 0.0122,-0.0122 0.0122,-0.0122 c 0.003,-0.005 0.009,-0.0312 0.0122,-0.0366 0.002,-0.006 0.0101,-0.03 0.0122,-0.0366 0.0332,-0.14464 -0.0199,-0.426 -0.20752,-0.87891 -0.55393,-0.22944 -0.85413,-0.2421 -0.96436,-0.15869 -0.005,0.005 -0.0205,0.0311 -0.0244,0.0366 -0.003,0.006 -0.01,0.0301 -0.0122,0.0366 -0.0531,0.28209 0.55179,0.94295 0.92773,1.07421 -19.80491,-3.23516 -41.3667,-0.41892 -50.6957,16.40622 -16.86776,13.11302 -25.27875,34.04663 -28.49115,54.65077 -10.94689,4.47912 -18.863,-32.49613 -23.55952,-48.18106 -5.1453,-15.18494 -10.79263,-29.73833 -10.88865,-45.95938 -4.23573,-18.86576 -7.7018,-37.89819 -11.29148,-56.89686 -7.06647,5.85553 -8.34045,11.03584 -7.84911,27.14839 4.78834,27.01932 -13.55133,-9.63852 -18.05416,-20.15377 -22.46734,-22.21079 -6.95476,-52.26112 5.78612,-74.71909 9.13739,-22.44688 -16.66059,19.24863 -21.92378,32.76361 -7.67546,19.26599 -9.74492,40.07951 -17.77341,59.10632 -4.03025,30.09472 -17.157,58.06699 -35.424731,82.0555 -12.18418,27.0023 -35.430336,18.40569 -22.86372,-10.20505 18.67684,-28.34149 -17.247856,-4.21421 -10.937476,13.74508 0.49694,42.91102 -43.1649301,5.58279 -19.06735,-17.72457 C 17.350383,486.40928 19.999973,550.49937 6.2460229,515.19774 12.939853,438.9373 71.372159,355.41687 108.35763,290.16157 132.51347,262.11597 80.880939,260.41145 81.099379,231.65339 74.013049,205.25177 87.465809,181.96664 97.041729,158.57004 107.70239,120.58451 125.54814,84.185221 147.34681,51.917421 Z m 0,17.90768 c -8.34328,15.57822 -6.43527,35.458469 -10.49803,52.380259 -0.1178,28.10738 12.71335,-17.56282 12.0117,-28.723079 -1.9725,-7.36614 6.72998,-18.75818 -1.51367,-23.65718 z m 31.56617,81.211849 c 8.63986,2.22967 1.18665,31.72438 -10.72794,28.48031 l -5.46961,-1.48925 c 0.22607,-13.29713 13.27061,-27.08997 16.19755,-26.99106 z m 104.63961,58.81472 c 18.94048,5.28744 39.2869,11.49903 58.94763,14.81931 18.13357,2.40787 28.44029,5.43905 50.04873,9.88767 37.90644,14.05771 -0.45953,41.28248 -19.97066,51.35488 -63.44433,31.12246 -80.98022,-54.04297 -90.95441,-59.32605 -20.6007,-12.67887 2.54312,-10.83822 1.92871,-16.73581 z m 93.09063,37.41448 c -0.42957,0.001 -0.858,0.0328 -1.29394,0.0854 -37.17338,10.43306 8.33354,47.47434 13.36667,11.98728 -0.0619,-6.45704 -5.62913,-12.08911 -12.07273,-12.07273 z m -173.13848,38.8557 c 7.46594,-0.0708 7.86856,48.69749 -21.63652,21.93519 -9.72399,-8.82006 5.90683,-12.40208 13.47654,-7.96379 -0.43835,-9.33461 6.34786,-13.95422 8.15998,-13.9714 z m 299.76176,45.03085 c 1.09809,-0.0471 1.02086,3.51403 -1.34277,14.01364 -4.43624,15.79715 -6.38755,28.37451 -14.83151,43.51798 -6.49912,20.77009 -51.77962,50.35203 -60.1073,23.09566 4.51507,-24.74643 48.96844,-86.23794 54.05263,-60.85193 1.36313,-20.83412 19.57055,-20.14822 9.85105,-8.0078 -3.16019,17.21113 9.28033,-11.63476 12.3779,-11.76755 z M 203.4991,362.70778 c -0.015,0.002 -0.0483,0.008 -0.061,0.0122 l -0.0122,0.0122 c -0.005,0.003 -0.0319,0.0214 -0.0366,0.0244 h -0.0122 l -0.0122,0.0122 v 0.0122 l -0.0122,0.0122 c -0.002,0.005 -0.0105,0.0318 -0.0122,0.0366 v 0.0122 0.0122 c -0.022,0.33754 0.77577,1.11067 1.09863,1.06201 h 0.0122 l 0.0122,-0.0122 h 0.0122 l 0.0122,-0.0122 0.0122,-0.0122 0.0122,-0.0122 0.0122,-0.0122 0.0122,-0.0122 v -0.0122 c 0.0523,-0.133 0.009,-0.42183 -0.19531,-0.91553 -0.4293,-0.17782 -0.69239,-0.23053 -0.84228,-0.20752 z m 278.44182,6.18895 c -2.78477,0.018 -7.59285,2.99794 -14.95358,10.43699 -9.41323,6.561 -21.48227,23.65018 -14.64841,35.58343 20.22642,-0.59034 40.52688,-46.09121 29.60199,-46.02042 z m -322.17953,77.36801 c 13.19712,13.62256 24.10941,27.12845 23.27877,47.24112 8.05759,22.70679 -3.99256,43.53248 -1.80664,66.65026 1.67037,5.26432 4.03775,32.26296 7.64158,47.43642 -0.36977,1.45959 -0.66366,3.49617 -0.85449,6.21337 2.62974,33.18024 6.53633,69.82105 -10.49802,101.92851 -18.57953,36.8074 -36.53933,74.47602 -59.89978,108.3738 -8.70128,-0.396 -10.56516,-34.79852 -10.2783,-47.19228 -1.40272,-24.75047 -9.694941,-64.69038 -39.440841,-66.7113 -3.82266,-17.83185 -2.53457,-37.47844 0.1831,-55.85926 5.53316,-20.46288 10.24993,-24.30934 12.64646,-49.45058 -0.0392,-30.32233 15.38127,-57.78054 28.039501,-84.53353 22.63413,-18.48464 26.07844,-72.07761 50.98866,-74.09653 z m 119.88502,49.93887 c 9.51836,-0.37056 17.04544,7.51825 12.69528,25.72016 10.57793,-20.18611 19.00804,-33.69852 40.44182,-12.04831 31.01516,2.50671 3.16883,49.49922 -15.44187,56.90906 -19.3152,9.80037 -35.33256,28.45962 -59.0697,24.58491 -23.47429,-8.53152 -30.0357,-31.46339 -18.49362,-55.43202 6.49739,-16.39127 25.20915,19.72372 20.5566,-10.02195 -1.99667,-3.66667 -4.38674,-5.87963 -3.74755,-10.86423 4.71752,-11.76699 14.66048,-18.52066 23.05904,-18.84762 z m 11.69431,36.71867 c -32.16292,7.27578 -20.81069,53.46927 8.28856,27.41694 15.10881,-10.68296 9.79474,-28.41629 -8.28856,-27.41694 z M 95.491499,701.70857 c -0.015,0.002 -0.0361,0.008 -0.0488,0.0122 -0.006,0.002 -0.0314,0.0218 -0.0366,0.0244 h -0.0122 l -0.0122,0.0122 -0.0122,0.0122 -0.0122,0.0122 v 0.0122 l -0.0122,0.0122 c -0.002,0.005 10e-4,0.0316 0,0.0366 v 0.0122 c -0.0216,0.33202 0.7422,1.08364 1.07421,1.06201 h 0.0122 c 0.005,-10e-4 0.0319,-0.0105 0.0366,-0.0122 h 0.0122 l 0.0122,-0.0122 0.0122,-0.0122 0.0122,-0.0122 v -0.0122 l 0.0122,-0.0122 0.0122,-0.0122 c 0.0523,-0.13299 0.009,-0.42182 -0.19531,-0.91552 -0.4293,-0.17783 -0.7046,-0.23053 -0.85449,-0.20752 z"
       sodipodi:nodetypes="scccccccccccccccccccccccccccccccccccccccccccccccccccccccccccccccssccccccscccccccccccccccccccccccccccccccccccccccccccccccccccccccccccccsccsccccccsccsscccscccccssccsccccccccccccccccccssccscccccccccccccscccscccscccscccccccccccccccccccccscccsc"
       style="opacity:0.5">
      <title
         id="title1">Selection</title>
    </path>
    <path
       id="path1-5"
       d="M 1514.3533,9.6537771e-4 C 1516.1468,0.11041538 1527.7206,10.709435 1556.6994,40.686921 c 4.5539,10.14891 39.9535,30.31332 60.4369,44.65324 12.4511,-7.35237 26.7115,-72.75559 50.8422,-29.30902 16.4841,33.84056 33.9276,67.557829 44.4579,103.735139 7.3981,28.56479 26.4712,61.49897 5.7617,88.74494 -9.1422,17.47701 -37.5368,13.35167 -10.3759,48.91348 26.8063,46.91594 116.5024,186.83341 79.846,234.6675 -25.1486,44.37176 -73.5102,15.17583 -88.9769,-20.7275 -17.5377,-31.33611 -34.1532,-66.29189 -39.0746,-101.48905 -8.0522,-3.09912 -22.9544,33.70712 -2.0508,45.15371 11.8209,29.7918 32.107,55.30894 44.6899,84.88753 13.8575,22.71765 20.4295,48.61937 23.0346,74.7435 9.1058,37.28585 16.2647,76.49071 9.2163,114.72145 -12.9497,31.8825 -1.6539,-29.69024 -16.4428,4.21142 -2.8104,3.82502 -5.2449,7.4187 -7.3365,11.10838 0.069,-0.005 0.1414,0.0109 0.1831,0.0244 0.01,0.003 0.031,0.0213 0.037,0.0244 l 0.012,0.0122 0.012,0.0122 0.012,0.0122 v 0.0122 l 0.012,0.0122 c 0,0.005 0.011,0.0309 0.012,0.0366 7e-4,0.006 -10e-5,0.0303 0,0.0366 -0.019,0.30561 -0.586,0.90822 -0.9399,1.02539 -5.0857,9.35887 -8.021,19.51398 -9.2895,35.59563 9.8216,24.44804 -10.6778,47.79172 -7.7759,72.65612 -5.8761,3.5022 -12.5477,-18.2678 -12.1216,-5.8106 -2.1007,-26.44 -39.2207,-36.32135 -47.1068,-63.43976 -13.2729,-21.33826 -20.8328,-46.11727 -27.7099,-70.30016 -3.6002,-6.49328 -6.7874,5.625 -8.0689,5.7373 -0.014,-2.5e-4 -0.047,-0.009 -0.061,-0.0122 -0.013,-0.005 -0.048,-0.0164 -0.061,-0.0244 -0.4341,-0.33273 -0.5856,-2.60824 -0.3662,-8.54491 -1.5924,-25.9282 -4.4392,-51.46953 -8.5083,-76.84311 2.7319,-2.13107 8.2029,-18.73777 12.6709,-26.44037 4.0296,-24.74339 14.8484,-88.78542 -3.5278,-65.6737 -7.3559,24.40135 -22.7123,57.5301 -53.0761,53.33241 -33.4573,4.2248 -64.9553,-15.75412 -89.5384,-36.7553 -13.5427,-19.96523 -18.7523,-52.78281 -3.0395,-72.97348 10.7177,-12.49736 17.2459,-27.83472 28.5156,-39.48967 9.9312,-22.78592 19.9384,-44.06523 -12.4878,-31.29876 -31.1849,6.2535 -63.2558,10.56888 -93.5911,19.01851 -18.0012,-2.06666 -38.7169,-4.82268 -52.5634,-17.4316 -12.3637,-15.14923 -27.0277,-28.5961 -32.1044,-48.29092 -1.6301,-15.15081 -19.3584,-41.1305 3.3081,-46.02042 27.241,3.48487 54.809,-3.89228 82.3362,-5.00487 27.2176,-2.03843 53.9098,-6.03447 81.0179,-7.70262 13.5348,-15.61272 -41.5694,-4.35 -52.9051,-23.29097 -33.1325,-12.63926 -41.2638,-52.74574 4.5776,-61.99939 32.6697,-11.63293 122.6926,-10.65569 89.7947,-26.96528 -17.1875,-11.2301 -28.8356,-29.75658 -37.2802,-47.08242 -11.6015,-24.67243 6.173,-35.19538 22.8149,-47.82705 8.8634,-7.878429 27.1387,-10.366889 18.0786,-30.785889 -5.7852,-23.62708 -4.9337,-60.45475 12.1216,-71.81402562 -0.026,-0.12277 -0.024,-0.23576 0,-0.30517 0,-0.005 0.022,-0.0316 0.024,-0.0366 v -0.0122 l 0.012,-0.0122 0.012,-0.0122 0.012,-0.0122 c 0,-0.003 0.032,-0.01 0.037,-0.0122 l 0.012,-0.0122 c 0.034,-0.0115 0.075,-0.0151 0.122,-0.0122000023 z M 1514.5486,11.231401 c -10.5728,-0.528966 -16.5673,50.09322 -3.2715,64.68495 0.311,1.18539 2.3082,3.44261 2.7409,4.45149 11.1294,-6.64367 45.7833,-12.38096 47.2159,-20.44187 -2.7512,-7.77676 -18.1199,-24.61532 -29.1837,-37.46084 4.2872,9.85302 8.7465,24.91432 9.5369,36.93514 -8.503,0.99669 -10.0784,-23.31552 -16.9433,-32.33637 -3.5139,-11.12484 -6.9981,-15.67754 -10.0952,-15.8325 z m 134.448,40.68598 c -8.0139,19.2837 -16.2627,38.48442 -26.0009,57.006719 -19.5024,-20.899079 -46.1725,-45.671659 -77.5145,-34.081959 -15.8641,4.47391 -26.1465,7.88043 -31.6293,12.76802 12.1847,17.364369 26.2078,2.36435 64.6614,17.993629 34.5746,20.25205 65.114,41.72116 78.1981,78.17368 6.4725,26.45375 -16.3845,41.51975 -43.4569,43.94522 -25.2263,-0.89498 -34.9871,-1.661 -61.8651,-7.97118 -59.5182,-13.50837 11.6898,20.03351 23.5839,34.75335 16.8887,15.49383 40.6196,19.93999 58.3617,33.41058 10.2901,30.13343 -20.029,65.81782 -49.1698,44.04288 -24.9907,-21.63912 -69.4608,-22.79525 -77.8197,-60.72986 -18.0473,19.71427 -39.8058,45.07301 -35.3271,73.59605 9.7107,21.57669 -8.9651,31.29981 -8.5449,2.6245 4.5678,-28.79234 -24.1731,-26.93645 -42.81,-20.64205 -29.9245,2.87239 -60.1281,4.28604 -89.6604,10.10741 14.9542,8.74893 26.1519,20.93871 34.204,36.20598 8.0105,14.89183 13.4464,31.13565 16.7969,47.80264 18.9481,-6.19157 39.6232,-7.03714 59.2406,-12.56101 17.9788,-4.80186 36.2278,-7.84847 54.5409,-9.87547 6.646,-14.89077 11.6387,-45.86161 16.8823,-12.56101 -4.1632,32.42893 -18.0876,64.54818 -37.7929,90.84454 -13.0352,14.54278 -24.6565,32.24512 3.5156,16.3696 4.2919,-1.33908 8.8619,-2.43977 13.5375,-3.21044 l -0.012,-0.0122 h -0.012 -0.012 c 0,-0.002 -0.032,-0.0219 -0.037,-0.0244 h -0.012 l -0.012,-0.0122 -0.012,-0.0122 c 0,-0.005 -0.01,-0.0312 -0.012,-0.0366 0,-0.006 -0.01,-0.03 -0.012,-0.0366 -0.033,-0.14464 0.02,-0.426 0.2076,-0.87891 0.5539,-0.22944 0.8541,-0.2421 0.9643,-0.15869 0.01,0.005 0.021,0.0311 0.024,0.0366 0,0.006 0.01,0.0301 0.012,0.0366 0.053,0.28209 -0.5518,0.94295 -0.9277,1.07421 19.8049,-3.23516 41.3667,-0.41892 50.6957,16.40622 16.8678,13.11302 25.2787,34.04663 28.4911,54.65077 10.9469,4.47912 18.863,-32.49613 23.5596,-48.18106 5.1453,-15.18494 10.7926,-29.73833 10.8886,-45.95938 4.2357,-18.86576 7.7018,-37.89819 11.2915,-56.89686 7.0665,5.85553 8.3404,11.03584 7.8491,27.14839 -4.7883,27.01932 13.5513,-9.63852 18.0542,-20.15377 22.4673,-22.21079 6.9547,-52.26112 -5.7862,-74.71909 -9.1373,-22.44688 16.6606,19.24863 21.9238,32.76361 7.6755,19.26599 9.7449,40.07951 17.7734,59.10632 4.0303,30.09472 17.1571,58.06699 35.4248,82.0555 12.1842,27.0023 35.4303,18.40569 22.8637,-10.20505 -18.6768,-28.34149 17.2479,-4.21421 10.9375,13.74508 -0.4969,42.91102 43.1649,5.58279 19.0673,-17.72457 14.8844,-15.53165 12.2348,48.55844 25.9888,13.25681 -6.6939,-76.26044 -65.1262,-159.78087 -102.1117,-225.03617 -24.1558,-28.0456 27.4767,-29.75012 27.2583,-58.50818 7.0863,-26.40162 -6.3664,-49.68675 -15.9424,-73.08335 -10.6606,-37.98553 -28.5064,-74.384819 -50.3051,-106.652619 z m 0,17.90768 c 8.3433,15.57822 6.4352,35.458469 10.498,52.380259 0.1178,28.10738 -12.7133,-17.56282 -12.0117,-28.723079 1.9725,-7.36614 -6.73,-18.75818 1.5137,-23.65718 z m -31.5662,81.211849 c -8.6399,2.22967 -1.1866,31.72438 10.7279,28.48031 l 5.4697,-1.48925 c -0.2261,-13.29713 -13.2707,-27.08997 -16.1976,-26.99106 z m -104.6396,58.81472 c -18.9405,5.28744 -39.2869,11.49903 -58.9476,14.81931 -18.1336,2.40787 -28.4403,5.43905 -50.0488,9.88767 -37.9064,14.05771 0.4596,41.28248 19.9707,51.35488 63.4443,31.12246 80.9802,-54.04297 90.9544,-59.32605 20.6007,-12.67887 -2.5431,-10.83822 -1.9287,-16.73581 z m -93.0906,37.41448 c 0.4295,0.001 0.858,0.0328 1.2939,0.0854 37.1734,10.43306 -8.3335,47.47434 -13.3667,11.98728 0.062,-6.45704 5.6292,-12.08911 12.0728,-12.07273 z m 173.1384,38.8557 c -7.4659,-0.0708 -7.8685,48.69749 21.6366,21.93519 9.724,-8.82006 -5.9069,-12.40208 -13.4766,-7.96379 0.4384,-9.33461 -6.3478,-13.95422 -8.16,-13.9714 z m -299.7617,45.03085 c -1.0981,-0.0471 -1.0209,3.51403 1.3428,14.01364 4.4362,15.79715 6.3875,28.37451 14.8315,43.51798 6.4991,20.77009 51.7796,50.35203 60.1073,23.09566 -4.5151,-24.74643 -48.9685,-86.23794 -54.0527,-60.85193 -1.3631,-20.83412 -19.5705,-20.14822 -9.851,-8.0078 3.1602,17.21113 -9.2803,-11.63476 -12.3779,-11.76755 z m 299.7674,31.55511 c 0.015,0.002 0.048,0.008 0.061,0.0122 l 0.012,0.0122 c 0.01,0.003 0.032,0.0214 0.037,0.0244 h 0.012 l 0.012,0.0122 v 0.0122 l 0.012,0.0122 c 0,0.005 0.011,0.0318 0.012,0.0366 v 0.0122 0.0122 c 0.022,0.33754 -0.7757,1.11067 -1.0986,1.06201 h -0.012 l -0.012,-0.0122 h -0.012 l -0.012,-0.0122 -0.012,-0.0122 -0.012,-0.0122 -0.012,-0.0122 -0.012,-0.0122 v -0.0122 c -0.052,-0.133 -0.01,-0.42183 0.1953,-0.91553 0.4293,-0.17782 0.6924,-0.23053 0.8423,-0.20752 z m -278.4418,6.18895 c 2.7848,0.018 7.5929,2.99794 14.9536,10.43699 9.4132,6.561 21.4823,23.65018 14.6484,35.58343 -20.2264,-0.59034 -40.5269,-46.09121 -29.602,-46.02042 z m 322.1796,77.36801 c -13.1972,13.62256 -24.1095,27.12845 -23.2788,47.24112 -8.0576,22.70679 3.9925,43.53248 1.8066,66.65026 -1.6703,5.26432 -4.0377,32.26296 -7.6416,47.43642 0.3698,1.45959 0.6637,3.49617 0.8545,6.21337 -2.6297,33.18024 -6.5363,69.82105 10.4981,101.92851 18.5795,36.8074 36.5393,74.47602 59.8997,108.37377 8.7013,-0.396 10.5652,-34.79849 10.2783,-47.19225 1.4028,-24.75047 9.695,-64.69038 39.4409,-66.7113 3.8227,-17.83185 2.5346,-37.47844 -0.1831,-55.85926 -5.5332,-20.46288 -10.2499,-24.30934 -12.6465,-49.45058 0.039,-30.32233 -15.3812,-57.78054 -28.0395,-84.53353 -22.6341,-18.48464 -26.0784,-72.07761 -50.9886,-74.09653 z M 1516.697,496.2036 c -9.5183,-0.37056 -17.0454,7.51825 -12.6952,25.72016 -10.578,-20.18611 -19.0081,-33.69852 -40.4419,-12.04831 -31.0151,2.50671 -3.1688,49.49922 15.4419,56.90906 19.3152,9.80037 35.3326,28.45962 59.0697,24.58491 23.4743,-8.53152 30.0357,-31.46339 18.4936,-55.43202 -6.4974,-16.39127 -25.2091,19.72372 -20.5566,-10.02195 1.9967,-3.66667 4.3868,-5.87963 3.7476,-10.86423 -4.7175,-11.76699 -14.6605,-18.52066 -23.0591,-18.84762 z m -11.6943,36.71867 c 32.1629,7.27578 20.8107,53.46927 -8.2885,27.41694 -15.1088,-10.68296 -9.7948,-28.41629 8.2885,-27.41694 z m 195.8493,168.78629 c 0.015,0.002 0.036,0.008 0.049,0.0122 0.01,0.002 0.031,0.0218 0.037,0.0244 h 0.012 l 0.012,0.0122 0.012,0.0122 0.012,0.0122 v 0.0122 l 0.012,0.0122 c 0,0.005 0,0.0316 0,0.0366 v 0.0122 c 0.022,0.33202 -0.7422,1.08364 -1.0742,1.06201 h -0.012 c -0.01,-10e-4 -0.032,-0.0105 -0.037,-0.0122 h -0.012 l -0.012,-0.0122 -0.012,-0.0122 -0.012,-0.0122 v -0.0122 l -0.012,-0.0122 -0.012,-0.0122 c -0.052,-0.13299 -0.01,-0.42182 0.1953,-0.91552 0.4293,-0.17783 0.7046,-0.23053 0.8545,-0.20752 z"
       sodipodi:nodetypes="scccccccccccccccccccccccccccccccccccccccccccccccccccccccccccccccssccccccscccccccccccccccccccccccccccccccccccccccccccccccccccccccccccccsccsccccccsccsscccscccccssccsccccccccccccccccccssccscccccccccccccscccscccscccscccccccccccccccccccccscccsc"
       style="opacity:0.5">
      <title
         id="title1-3">Selection</title>
    </path>
    <path
       id="path1-7"
       d="m 923.05161,854.54721 c -1.7935,-0.1094 -13.3672,-10.7085 -42.3461,-40.6859 -4.5538,-10.1489 -39.9535,-30.3134 -60.4369,-44.6533 -12.4511,7.3524 -26.7114,72.7556 -50.8421,29.309 -16.4841,-33.8405 -33.9277,-67.5578 -44.458,-103.7351 -7.3981,-28.5648 -26.4711,-61.499 -5.7617,-88.7449 9.1422,-17.477 37.5369,-13.3517 10.376,-48.9135 -26.8063,-46.916 -116.5024,-186.8334 -79.846,-234.6675 25.1486,-44.3718 73.5102,-15.1758 88.9768,20.7275 17.5377,31.3361 34.1532,66.2919 39.0747,101.489 8.0521,3.0992 22.9543,-33.7071 2.0507,-45.1537 -11.8208,-29.7918 -32.107,-55.3089 -44.6898,-84.8875 -13.8575,-22.7177 -20.4296,-48.6194 -23.0346,-74.7435 -9.1059,-37.2859 -16.2648,-76.4907 -9.2163,-114.7215 12.9496,-31.882499 1.6539,29.6903 16.4428,-4.2114 2.8103,-3.825 5.2449,-7.4187 7.3364,-11.1084 -0.069,0 -0.1413,-0.011 -0.1831,-0.024 -0.01,0 -0.031,-0.021 -0.037,-0.024 l -0.012,-0.012 -0.012,-0.012 -0.012,-0.012 v -0.012 l -0.012,-0.012 c 0,0 -0.011,-0.031 -0.012,-0.037 -6e-4,-0.01 2e-4,-0.03 0,-0.037 0.019,-0.3056 0.5861,-0.9082 0.94,-1.0253 5.0856,-9.358899 8.021,-19.513999 9.2895,-35.595699 -9.8216,-24.448 10.6777,-47.79171 7.7759,-72.65611062 5.8761,-3.50219998 12.5476,18.26780062 12.1215,5.81060002 2.1007,26.4400006 39.2207,36.3214106 47.1069,63.4398106 13.2728,21.3382 20.8328,46.117199 27.7099,70.300099 3.6002,6.4933 6.7873,-5.625 8.0688,-5.7373 0.014,3e-4 0.047,0.01 0.061,0.012 0.013,0 0.048,0.016 0.061,0.024 0.4341,0.3328 0.5856,2.6083 0.3662,8.5449 1.5925,25.9282 4.4392,51.4696 8.5083,76.8431 -2.7319,2.1311 -8.2028,18.7378 -12.6709,26.4404 -4.0296,24.7434 -14.8483,88.7854 3.5278,65.6737 7.356,-24.4013 22.7124,-57.5301 53.0761,-53.3324 33.4573,-4.2248 64.9554,15.7541 89.5384,36.7553 13.5428,19.9652 18.75239,52.7828 3.0395,72.9735 -10.7177,12.4973 -17.2458,27.8347 -28.5155,39.4897 -9.9312,22.7859 -19.9384,44.0652 12.4877,31.2987 31.18489,-6.2535 63.25579,-10.5689 93.59119,-19.0185 18.0012,2.0667 38.7169,4.8227 52.5633,17.4316 12.3637,15.1492 27.0277,28.5961 32.1045,48.2909 1.63,15.1508 19.3583,41.1305 -3.3081,46.0204 -27.2411,-3.4848 -54.8091,3.8923 -82.3363,5.0049 -27.2176,2.0384 -53.9098,6.0345 -81.01789,7.7026 -13.5348,15.6128 41.56939,4.35 52.90519,23.291 33.1324,12.6393 41.2637,52.7457 -4.5777,61.9994 -32.66959,11.6329 -122.69249,10.6557 -89.79469,26.9653 17.1875,11.2301 28.8357,29.7566 37.2802,47.0824 11.6015,24.6724 -6.173,35.1954 -22.8149,47.827 -8.8633,7.8785 -27.1387,10.3669 -18.0786,30.7859 5.7852,23.6271 4.9337,60.4548 -12.1215,71.8141 0.026,0.1228 0.024,0.2357 0,0.3052 0,0 -0.022,0.032 -0.024,0.037 v 0.012 l -0.012,0.012 -0.012,0.012 -0.012,0.012 c -0.01,0 -0.032,0.01 -0.037,0.012 l -0.012,0.012 c -0.034,0.012 -0.075,0.015 -0.1221,0.012 z m -0.1953,-11.2304 c 10.5728,0.5289 16.5673,-50.0932 3.2715,-64.685 -0.3109,-1.1854 -2.3082,-3.4426 -2.7409,-4.4515 -11.1294,6.6437 -45.7833,12.381 -47.2159,20.4419 2.7512,7.7768 18.1199,24.6153 29.1837,37.4608 -4.2872,-9.853 -8.7465,-24.9143 -9.5369,-36.9351 8.503,-0.9967 10.0785,23.3155 16.9433,32.3364 3.5139,11.1248 6.9982,15.6775 10.0952,15.8325 z m -134.4479,-40.686 c 8.0139,-19.2837 16.2626,-38.4844 26.0009,-57.0067 19.5023,20.8991 46.1724,45.6716 77.5145,34.0819 15.8641,-4.4739 26.1465,-7.8804 31.6292,-12.768 -12.1847,-17.3643 -26.2078,-2.3643 -64.6614,-17.9936 -34.5746,-20.2521 -65.1139,-41.7212 -78.1981,-78.1737 -6.4725,-26.4537 16.3845,-41.5197 43.457,-43.9452 25.2263,0.895 34.987,1.661 61.8651,7.9712 59.5181,13.5083 -11.6899,-20.0335 -23.5839,-34.7534 -16.8888,-15.4938 -40.6196,-19.94 -58.3617,-33.4106 -10.2901,-30.1334 20.0289,-65.8178 49.1698,-44.0428 24.9907,21.6391 69.4608,22.7952 77.8196,60.7298 18.0473,-19.7142 39.8058,-45.073 35.3271,-73.596 -9.7106,-21.5767 8.9652,-31.2998 8.5449,-2.6245 -4.5678,28.7923 24.1732,26.9364 42.80999,20.642 29.9245,-2.8724 60.1282,-4.286 89.6605,-10.1074 -14.9542,-8.7489 -26.1519,-20.9387 -34.2041,-36.206 -8.0105,-14.8918 -13.4463,-31.1356 -16.7968,-47.8026 -18.9482,6.1916 -39.6233,7.0371 -59.24059,12.561 -17.9788,4.8019 -36.2279,7.8485 -54.5409,9.8755 -6.6461,14.8907 -11.6388,45.8616 -16.8823,12.561 4.1631,-32.4289 18.0875,-64.5482 37.7929,-90.8446 13.0351,-14.5427 24.6565,-32.2451 -3.5156,-16.3696 -4.2919,1.3391 -8.862,2.4398 -13.5376,3.2105 l 0.012,0.012 h 0.012 0.012 c 0,0 0.032,0.022 0.037,0.024 h 0.012 l 0.012,0.012 0.012,0.012 c 0,0 0.01,0.031 0.012,0.037 0,0.01 0.01,0.03 0.012,0.037 0.033,0.1446 -0.02,0.426 -0.2075,0.8789 -0.554,0.2294 -0.8542,0.2421 -0.9644,0.1587 -0.01,0 -0.021,-0.031 -0.024,-0.037 0,-0.01 -0.01,-0.03 -0.012,-0.037 -0.053,-0.2821 0.5518,-0.943 0.9277,-1.0742 -19.8049,3.2351 -41.3667,0.4189 -50.6957,-16.4062 -16.8677,-13.1131 -25.2787,-34.0467 -28.4911,-54.6508 -10.9469,-4.4791 -18.863,32.4961 -23.5595,48.181 -5.1453,15.185 -10.7927,29.7384 -10.8887,45.9594 -4.2357,18.8658 -7.7018,37.8982 -11.2915,56.8969 -7.0664,-5.8555 -8.3404,-11.0359 -7.8491,-27.1484 4.7884,-27.0193 -13.5513,9.6385 -18.0541,20.1538 -22.4674,22.2108 -6.9548,52.2611 5.7861,74.7191 9.1374,22.4468 -16.6606,-19.2487 -21.9238,-32.7637 -7.6754,-19.2659 -9.7449,-40.0795 -17.7734,-59.1063 -4.0302,-30.0947 -17.157,-58.067 -35.4247,-82.0555 -12.1842,-27.0023 -35.4304,-18.4057 -22.8637,10.2051 18.6768,28.3415 -17.2479,4.2142 -10.9375,-13.7451 0.4969,-42.911 -43.1649,-5.5828 -19.0674,17.7246 -14.8843,15.5316 -12.2347,-48.5585 -25.9887,-13.2568 6.6939,76.2604 65.1262,159.7808 102.1116,225.0361 24.1559,28.0456 -27.4767,29.7501 -27.2582,58.5082 -7.0864,26.4016 6.3664,49.6868 15.9423,73.0834 10.6607,37.9855 28.5064,74.3848 50.3051,106.6526 z m 0,-17.9077 c -8.3433,-15.5782 -6.4353,-35.4584 -10.4981,-52.3802 -0.1178,-28.1074 12.7134,17.5628 12.0117,28.723 -1.9725,7.3662 6.73,18.7582 -1.5136,23.6572 z m 31.5661,-81.2118 c 8.6399,-2.2297 1.1867,-31.7244 -10.7279,-28.4803 l -5.4696,1.4892 c 0.2261,13.2971 13.2706,27.09 16.1975,26.9911 z m 104.6396,-58.8147 c 18.9405,-5.2875 39.2869,-11.4991 58.9477,-14.8194 18.13349,-2.4078 28.44029,-5.439 50.04869,-9.8876 37.9064,-14.0577 -0.4595,-41.2825 -19.9707,-51.3549 -63.44429,-31.1225 -80.98019,54.043 -90.95439,59.326 -20.6007,12.6789 2.5432,10.8383 1.9287,16.7359 z m 93.09069,-37.4145 c -0.4296,-10e-4 -0.858,-0.033 -1.294,-0.085 -37.17329,-10.4331 8.3336,-47.4744 13.3667,-11.9873 -0.062,6.457 -5.6291,12.0891 -12.0727,12.0727 z m -173.13849,-38.8557 c 7.4659,0.071 7.8686,-48.6975 -21.6365,-21.9352 -9.724,8.82 5.9068,12.4021 13.4765,7.9638 -0.4383,9.3346 6.3479,13.9542 8.16,13.9714 z m 299.76179,-45.0309 c 1.098,0.047 1.0208,-3.514 -1.3428,-14.0136 -4.4363,-15.7972 -6.3876,-28.3745 -14.8315,-43.518 -6.4991,-20.7701 -51.7796,-50.352 -60.1073,-23.0957 4.515,24.7465 48.9684,86.238 54.0526,60.852 1.3631,20.8341 19.5706,20.1482 9.8511,8.0078 -3.1602,-17.2112 9.2803,11.6347 12.3779,11.7675 z m -299.76749,-31.5551 c -0.015,0 -0.048,-0.01 -0.061,-0.012 l -0.012,-0.012 c -0.01,0 -0.032,-0.021 -0.037,-0.024 h -0.012 l -0.012,-0.012 v -0.012 l -0.012,-0.012 c 0,-0.01 -0.01,-0.032 -0.012,-0.037 v -0.012 -0.012 c -0.022,-0.3375 0.7758,-1.1107 1.0986,-1.062 h 0.012 l 0.012,0.012 h 0.012 l 0.012,0.012 0.012,0.012 0.012,0.012 0.012,0.012 0.012,0.012 v 0.012 c 0.052,0.133 0.01,0.4218 -0.1953,0.9155 -0.4293,0.1779 -0.6924,0.2306 -0.8423,0.2076 z m 278.44179,-6.1889 c -2.7848,-0.018 -7.5928,-2.998 -14.9536,-10.437 -9.4132,-6.561 -21.4822,-23.6502 -14.6484,-35.5835 20.2264,0.5904 40.5269,46.0913 29.602,46.0205 z m -322.17949,-77.368 c 13.1971,-13.6226 24.1094,-27.1285 23.2788,-47.2412 8.0575,-22.7068 -3.9926,-43.5324 -1.8067,-66.6502 1.6704,-5.2643 4.0378,-32.263 7.6416,-47.4364 -0.3698,-1.4596 -0.6637,-3.4962 -0.8545,-6.2134 2.6297,-33.1803 6.5363,-69.8211 -10.498,-101.9285 -18.5795,-36.8074 -36.5393,-74.475999 -59.8998,-108.373809 -8.7013,0.396 -10.5652,34.79851 -10.2783,47.19231 -1.4027,24.750399 -9.6949,64.690299 -39.4408,66.711299 -3.8227,17.8318 -2.5346,37.4784 0.1831,55.8592 5.5331,20.4629 10.2499,24.3094 12.6464,49.4506 -0.039,30.3223 15.3813,57.7805 28.0395,84.5335 22.6342,18.4847 26.0785,72.0776 50.9887,74.0966 z m 119.885,-49.9389 c 9.5184,0.3705 17.0454,-7.5183 12.6953,-25.7202 10.5779,20.1861 19.008,33.6985 40.4418,12.0483 31.01519,-2.5067 3.1688,-49.4992 -15.4419,-56.909 -19.3152,-9.8004 -35.3325,-28.4596 -59.0697,-24.5849 -23.4743,8.5315 -30.0357,31.4634 -18.4936,55.432 6.4974,16.3913 25.2092,-19.7237 20.5566,10.0219 -1.9967,3.6667 -4.3867,5.8797 -3.7475,10.8643 4.7175,11.767 14.6604,18.5206 23.059,18.8476 z m 11.6943,-36.7187 c -32.1629,-7.2758 -20.8107,-53.4692 8.2886,-27.4169 15.1088,10.6829 9.7947,28.4163 -8.2886,27.4169 z m -195.8492,-168.7863 c -0.015,0 -0.036,-0.01 -0.049,-0.012 -0.01,0 -0.031,-0.022 -0.037,-0.024 h -0.012 l -0.012,-0.012 -0.012,-0.012 -0.012,-0.012 v -0.012 l -0.012,-0.012 c 0,0 10e-4,-0.032 0,-0.037 v -0.012 c -0.022,-0.332 0.7422,-1.0836 1.0742,-1.062 h 0.012 c 0.01,0.001 0.032,0.01 0.037,0.012 h 0.012 l 0.012,0.012 0.012,0.012 0.012,0.012 v 0.012 l 0.012,0.012 0.012,0.012 c 0.052,0.133 0.01,0.4218 -0.1953,0.9155 -0.4293,0.1779 -0.7046,0.2306 -0.8545,0.2076 z"
       sodipodi:nodetypes="scccccccccccccccccccccccccccccccccccccccccccccccccccccccccccccccssccccccscccccccccccccccccccccccccccccccccccccccccccccccccccccccccccccsccsccccccsccsscccscccccssccsccccccccccccccccccssccscccccccccccccscccscccscccscccccccccccccccccccccscccsc"
       style="opacity:0.5">
      <title
         id="title1-9">Selection</title>
    </path>
    <path
       id="path1-5-2"
       d="m 2155.4151,854.54731 c 1.7935,-0.1095 13.3673,-10.7085 42.3461,-40.686 4.5539,-10.1489 39.9535,-30.3133 60.4369,-44.6533 12.4511,7.3524 26.7115,72.7556 50.8422,29.3091 16.4841,-33.8406 33.9276,-67.5579 44.4579,-103.7352 7.3981,-28.5648 26.4712,-61.499 5.7617,-88.7449 -9.1422,-17.477 -37.5368,-13.3517 -10.3759,-48.9135 26.8063,-46.9159 116.5024,-186.8334 79.846,-234.6675 -25.1486,-44.3718 -73.5102,-15.1758 -88.9769,20.7275 -17.5377,31.3361 -34.1532,66.2919 -39.0746,101.489 -8.0522,3.0992 -22.9544,-33.7071 -2.0508,-45.1537 11.8209,-29.7918 32.107,-55.3089 44.6899,-84.8875 13.8575,-22.7176 20.4295,-48.6194 23.0346,-74.7435 9.1058,-37.2858 16.2647,-76.4907 9.2163,-114.7214 -12.9497,-31.882499 -1.6539,29.6902 -16.4428,-4.2115 -2.8104,-3.825 -5.2449,-7.4187 -7.3365,-11.1083 0.069,0 0.1414,-0.011 0.1831,-0.024 0.01,0 0.031,-0.021 0.037,-0.024 l 0.012,-0.012 0.012,-0.012 0.012,-0.012 v -0.012 l 0.012,-0.012 c 0,0 0.011,-0.031 0.012,-0.037 7e-4,-0.01 -1e-4,-0.03 0,-0.037 -0.019,-0.3057 -0.586,-0.9083 -0.9399,-1.0254 -5.0857,-9.358899 -8.021,-19.513999 -9.2895,-35.595699 9.8216,-24.448 -10.6778,-47.7917 -7.7759,-72.65610962 -5.8761,-3.50219998 -12.5477,18.26779962 -12.1216,5.81059902 -2.1007,26.4400106 -39.2207,36.3214106 -47.1068,63.4398106 -13.2729,21.3382 -20.8328,46.117199 -27.7099,70.300099 -3.6002,6.4933 -6.7874,-5.625 -8.0689,-5.7373 -0.014,3e-4 -0.047,0.01 -0.061,0.012 -0.013,0 -0.048,0.016 -0.061,0.024 -0.4341,0.3328 -0.5856,2.6083 -0.3662,8.5449 -1.5924,25.9282 -4.4392,51.4696 -8.5083,76.8432 2.7319,2.131 8.2029,18.7377 12.6709,26.4403 4.0296,24.7434 14.8484,88.7854 -3.5278,65.6737 -7.3559,-24.4013 -22.7123,-57.5301 -53.0761,-53.3324 -33.4573,-4.2248 -64.9553,15.7541 -89.5384,36.7553 -13.5427,19.9652 -18.7523,52.7828 -3.0395,72.9735 10.7177,12.4974 17.2459,27.8347 28.5156,39.4897 9.9312,22.7859 19.9384,44.0652 -12.4878,31.2987 -31.1849,-6.2535 -63.2558,-10.5689 -93.5911,-19.0185 -18.0012,2.0667 -38.7169,4.8227 -52.5634,17.4316 -12.3637,15.1492 -27.0277,28.5961 -32.1044,48.2909 -1.6301,15.1508 -19.3584,41.1305 3.3081,46.0205 27.241,-3.4849 54.809,3.8922 82.3362,5.0048 27.2176,2.0385 53.9098,6.0345 81.0179,7.7027 13.5348,15.6127 -41.5694,4.3499 -52.9051,23.2909 -33.1325,12.6393 -41.2638,52.7458 4.5776,61.9994 32.6697,11.6329 122.6926,10.6557 89.7947,26.9653 -17.1875,11.2301 -28.8356,29.7566 -37.2802,47.0824 -11.6015,24.6724 6.173,35.1954 22.8149,47.8271 8.8634,7.8784 27.1387,10.3668 18.0786,30.7859 -5.7852,23.627 -4.9337,60.4547 12.1216,71.814 -0.026,0.1228 -0.024,0.2358 0,0.3052 0,0 0.022,0.032 0.024,0.037 v 0.012 l 0.012,0.012 0.012,0.012 0.012,0.012 c 0,0 0.032,0.01 0.037,0.012 l 0.012,0.012 c 0.034,0.012 0.075,0.015 0.122,0.012 z m 0.1953,-11.2305 c -10.5728,0.529 -16.5673,-50.0932 -3.2715,-64.685 0.311,-1.1853 2.3082,-3.4426 2.7409,-4.4514 11.1294,6.6436 45.7833,12.3809 47.2159,20.4418 -2.7512,7.7768 -18.1199,24.6153 -29.1837,37.4609 4.2872,-9.8531 8.7465,-24.9144 9.5369,-36.9352 -8.503,-0.9967 -10.0784,23.3155 -16.9433,32.3364 -3.5139,11.1248 -6.9981,15.6775 -10.0952,15.8325 z m 134.448,-40.686 c -8.0139,-19.2837 -16.2627,-38.4844 -26.0009,-57.0067 -19.5024,20.8991 -46.1725,45.6717 -77.5145,34.082 -15.8641,-4.474 -26.1465,-7.8805 -31.6293,-12.7681 12.1847,-17.3643 26.2078,-2.3643 64.6614,-17.9936 34.5746,-20.252 65.114,-41.7212 78.1981,-78.1737 6.4725,-26.4537 -16.3845,-41.5197 -43.4569,-43.9452 -25.2263,0.895 -34.9871,1.661 -61.8651,7.9712 -59.5182,13.5084 11.6898,-20.0335 23.5839,-34.7534 16.8887,-15.4938 40.6196,-19.94 58.3617,-33.4105 10.2901,-30.1335 -20.029,-65.8179 -49.1698,-44.0429 -24.9907,21.6391 -69.4608,22.7952 -77.8197,60.7298 -18.0473,-19.7142 -39.8058,-45.073 -35.3271,-73.596 9.7107,-21.5767 -8.9651,-31.2998 -8.5449,-2.6245 4.5678,28.7923 -24.1731,26.9364 -42.81,20.642 -29.9245,-2.8724 -60.1281,-4.286 -89.6604,-10.1074 14.9542,-8.7489 26.1519,-20.9387 34.204,-36.206 8.0105,-14.8918 13.4464,-31.1356 16.7969,-47.8026 18.9481,6.1916 39.6232,7.0371 59.2406,12.561 17.9788,4.8019 36.2278,7.8485 54.5409,9.8755 6.646,14.8908 11.6387,45.8616 16.8823,12.561 -4.1632,-32.4289 -18.0876,-64.5482 -37.7929,-90.8445 -13.0352,-14.5428 -24.6565,-32.2452 3.5156,-16.3696 4.2919,1.339 8.8619,2.4397 13.5375,3.2104 l -0.012,0.012 h -0.012 -0.012 c 0,0 -0.032,0.022 -0.037,0.024 h -0.012 l -0.012,0.012 -0.012,0.012 c 0,0 -0.01,0.031 -0.012,0.037 0,0.01 -0.01,0.03 -0.012,0.037 -0.033,0.1446 0.02,0.426 0.2076,0.8789 0.5539,0.2294 0.8541,0.2421 0.9643,0.1587 0.01,0 0.021,-0.031 0.024,-0.037 0,-0.01 0.01,-0.03 0.012,-0.037 0.053,-0.2821 -0.5518,-0.943 -0.9277,-1.0742 19.8049,3.2352 41.3667,0.4189 50.6957,-16.4062 16.8678,-13.1131 25.2787,-34.0467 28.4911,-54.6508 10.9469,-4.4791 18.863,32.4961 23.5596,48.1811 5.1453,15.1849 10.7926,29.7383 10.8886,45.9593 4.2357,18.8658 7.7018,37.8982 11.2915,56.8969 7.0665,-5.8555 8.3404,-11.0358 7.8491,-27.1484 -4.7883,-27.0193 13.5513,9.6385 18.0542,20.1538 22.4673,22.2108 6.9547,52.2611 -5.7862,74.7191 -9.1373,22.4469 16.6606,-19.2487 21.9238,-32.7636 7.6755,-19.266 9.7449,-40.0796 17.7734,-59.1064 4.0303,-30.0947 17.1571,-58.0669 35.4248,-82.0555 12.1842,-27.0023 35.4303,-18.4056 22.8637,10.2051 -18.6768,28.3415 17.2479,4.2142 10.9375,-13.7451 -0.4969,-42.911 43.1649,-5.5828 19.0673,17.7246 14.8844,15.5316 12.2348,-48.5585 25.9888,-13.2568 -6.6939,76.2604 -65.1262,159.7808 -102.1117,225.0361 -24.1558,28.0456 27.4767,29.7502 27.2583,58.5082 7.0863,26.4016 -6.3664,49.6868 -15.9424,73.0834 -10.6606,37.9855 -28.5064,74.3848 -50.3051,106.6526 z m 0,-17.9077 c 8.3433,-15.5782 6.4352,-35.4584 10.498,-52.3802 0.1178,-28.1074 -12.7133,17.5628 -12.0117,28.7231 1.9725,7.3661 -6.73,18.7581 1.5137,23.6571 z m -31.5662,-81.2118 c -8.6399,-2.2297 -1.1866,-31.7244 10.7279,-28.4803 l 5.4697,1.4892 c -0.2261,13.2972 -13.2707,27.09 -16.1976,26.9911 z m -104.6396,-58.8147 c -18.9405,-5.2875 -39.2869,-11.4991 -58.9476,-14.8193 -18.1336,-2.4079 -28.4403,-5.4391 -50.0488,-9.8877 -37.9064,-14.0577 0.4596,-41.2825 19.9707,-51.3549 63.4443,-31.1225 80.9802,54.043 90.9544,59.3261 20.6007,12.6788 -2.5431,10.8382 -1.9287,16.7358 z m -93.0906,-37.4145 c 0.4295,-10e-4 0.858,-0.033 1.2939,-0.085 37.1734,-10.4331 -8.3335,-47.4744 -13.3667,-11.9873 0.062,6.457 5.6292,12.0891 12.0728,12.0727 z m 173.1384,-38.8557 c -7.4659,0.071 -7.8685,-48.6975 21.6366,-21.9352 9.724,8.8201 -5.9069,12.4021 -13.4766,7.9638 0.4384,9.3346 -6.3478,13.9542 -8.16,13.9714 z m -299.7617,-45.0309 c -1.0981,0.047 -1.0209,-3.514 1.3428,-14.0136 4.4362,-15.7972 6.3875,-28.3745 14.8315,-43.518 6.4991,-20.7701 51.7796,-50.352 60.1073,-23.0956 -4.5151,24.7464 -48.9685,86.2379 -54.0527,60.8519 -1.3631,20.8341 -19.5705,20.1482 -9.851,8.0078 3.1602,-17.2111 -9.2803,11.6347 -12.3779,11.7675 z m 299.7674,-31.5551 c 0.015,0 0.048,-0.01 0.061,-0.012 l 0.012,-0.012 c 0.01,0 0.032,-0.021 0.037,-0.024 h 0.012 l 0.012,-0.012 v -0.012 l 0.012,-0.012 c 0,-0.01 0.011,-0.032 0.012,-0.037 v -0.012 -0.012 c 0.022,-0.3375 -0.7757,-1.1106 -1.0986,-1.062 h -0.012 l -0.012,0.012 h -0.012 l -0.012,0.012 -0.012,0.012 -0.012,0.012 -0.012,0.012 -0.012,0.012 v 0.012 c -0.052,0.133 -0.01,0.4218 0.1953,0.9155 0.4293,0.1779 0.6924,0.2306 0.8423,0.2076 z m -278.4418,-6.1889 c 2.7848,-0.018 7.5929,-2.998 14.9536,-10.437 9.4132,-6.561 21.4823,-23.6502 14.6484,-35.5834 -20.2264,0.5903 -40.5269,46.0912 -29.602,46.0204 z m 322.1796,-77.368 c -13.1972,-13.6226 -24.1095,-27.1285 -23.2788,-47.2412 -8.0576,-22.7067 3.9925,-43.5324 1.8066,-66.6502 -1.6703,-5.2643 -4.0377,-32.263 -7.6416,-47.4364 0.3698,-1.4596 0.6637,-3.4962 0.8545,-6.2134 -2.6297,-33.1802 -6.5363,-69.8211 10.4981,-101.9285 18.5795,-36.8074 36.5393,-74.475999 59.8997,-108.373799 8.7013,0.396 10.5652,34.7985 10.2783,47.1923 1.4028,24.750399 9.695,64.690299 39.4409,66.711299 3.8227,17.8318 2.5346,37.4784 -0.1831,55.8592 -5.5332,20.4629 -10.2499,24.3094 -12.6465,49.4506 0.039,30.3223 -15.3812,57.7805 -28.0395,84.5335 -22.6341,18.4847 -26.0784,72.0776 -50.9886,74.0966 z m -119.8851,-49.9389 c -9.5183,0.3706 -17.0454,-7.5183 -12.6952,-25.7202 -10.578,20.1861 -19.0081,33.6986 -40.4419,12.0483 -31.0151,-2.5067 -3.1688,-49.4992 15.4419,-56.909 19.3152,-9.8004 35.3326,-28.4596 59.0697,-24.5849 23.4743,8.5315 30.0357,31.4634 18.4936,55.432 -6.4974,16.3913 -25.2091,-19.7237 -20.5566,10.0219 1.9967,3.6667 4.3868,5.8797 3.7476,10.8643 -4.7175,11.767 -14.6605,18.5206 -23.0591,18.8476 z m -11.6943,-36.7187 c 32.1629,-7.2758 20.8107,-53.4692 -8.2885,-27.4169 -15.1088,10.6829 -9.7948,28.4163 8.2885,27.4169 z m 195.8493,-168.7863 c 0.015,0 0.036,-0.01 0.049,-0.012 0.01,0 0.031,-0.022 0.037,-0.024 h 0.012 l 0.012,-0.012 0.012,-0.012 0.012,-0.012 v -0.012 l 0.012,-0.012 c 0,0 0,-0.032 0,-0.037 v -0.012 c 0.022,-0.332 -0.7422,-1.0836 -1.0742,-1.062 h -0.012 c -0.01,0.001 -0.032,0.01 -0.037,0.012 h -0.012 l -0.012,0.012 -0.012,0.012 -0.012,0.012 v 0.012 l -0.012,0.012 -0.012,0.012 c -0.052,0.133 -0.01,0.4218 0.1953,0.9155 0.4293,0.1779 0.7046,0.2306 0.8545,0.2076 z"
       sodipodi:nodetypes="scccccccccccccccccccccccccccccccccccccccccccccccccccccccccccccccssccccccscccccccccccccccccccccccccccccccccccccccccccccccccccccccccccccsccsccccccsccsscccscccccssccsccccccccccccccccccssccscccccccccccccscccscccscccscccccccccccccccccccccscccsc"
       style="opacity:0.5">
      <title
         id="title1-3-0">Selection</title>
    </path>
  </g>
  <g
     id="g1"
     transform="translate(1.7603914)">
    <path
       id="path1-53"
       d="m 280.22977,1883.7038 c -1.79355,-0.1094 -13.36727,-10.7084 -42.3461,-40.6859 -4.55388,-10.1489 -39.95352,-30.3134 -60.4369,-44.6533 -12.45113,7.3524 -26.71149,72.7556 -50.84218,29.309 -16.48411,-33.8405 -33.92762,-67.5578 -44.45792,-103.7351 -7.39812,-28.5648 -26.47113,-61.499 -5.7617,-88.7449 9.14218,-17.477 37.53684,-13.3517 10.37595,-48.9135 C 59.9546,1539.3641 -29.7415,1399.4467 6.9148898,1351.6126 32.06349,1307.2408 80.42514,1336.4368 95.89176,1372.3401 c 17.53766,31.3361 34.15316,66.2919 39.07463,101.489 8.05214,3.0992 22.95436,-33.7071 2.05078,-45.1537 -11.82086,-29.7918 -32.10705,-55.3089 -44.68985,-84.8875 -13.85748,-22.7176 -20.42955,-48.6194 -23.03463,-74.7435 -9.10584,-37.2858 -16.26473,-76.4907 -9.21629,-114.7214 12.94966,-31.8825 1.6539,29.6902 16.44284,-4.2115 2.81032,-3.825 5.24488,-7.4187 7.33641,-11.1083 -0.069,0 -0.14131,-0.011 -0.1831,-0.024 -0.006,0 -0.031,-0.021 -0.0366,-0.024 l -0.0122,-0.012 -0.0122,-0.012 -0.0122,-0.012 v -0.012 l -0.0122,-0.012 c -0.002,-0.01 -0.011,-0.031 -0.0122,-0.037 -6.6e-4,-0.01 1.3e-4,-0.03 0,-0.036 0.0187,-0.3057 0.58606,-0.9083 0.93994,-1.0254 5.08566,-9.3589 8.02104,-19.514 9.28953,-35.5957 -9.82162,-24.448 10.67771,-47.7917 7.77587,-72.6561 5.87609,-3.5022 12.54764,18.2678 12.12156,5.8106 2.10069,26.44 39.2207,36.3214 47.10683,63.4398 13.27284,21.3382 20.83283,46.1172 27.70991,70.3001 3.60019,6.4933 6.78735,-5.625 8.06883,-5.7373 0.014,3e-4 0.0475,0.01 0.061,0.012 0.0133,0.01 0.0482,0.016 0.061,0.024 0.4341,0.3328 0.58565,2.6083 0.36621,8.5449 1.59247,25.9282 4.43924,51.4696 8.50829,76.8431 -2.73187,2.1311 -8.20281,18.7378 -12.67088,26.4404 -4.02957,24.7434 -14.84836,88.7854 3.52783,65.6737 7.35592,-24.4013 22.71233,-57.5301 53.07606,-53.3324 33.45734,-4.2248 64.95536,15.7541 89.53836,36.7553 13.5428,19.9652 18.7524,52.7828 3.0396,72.9735 -10.7177,12.4973 -17.2459,27.8347 -28.5156,39.4897 -9.9312,22.7859 -19.9384,44.0652 12.4878,31.2987 31.1849,-6.2535 63.2557,-10.5689 93.5911,-19.0185 18.0012,2.0667 38.7169,4.8227 52.5634,17.4316 12.3637,15.1492 27.0277,28.5961 32.1044,48.2909 1.6301,15.1508 19.3584,41.1305 -3.3081,46.0204 -27.241,-3.4848 -54.809,3.8923 -82.3363,5.0049 -27.2175,2.0384 -53.9098,6.0345 -81.0179,7.7026 -13.5347,15.6128 41.5694,4.35 52.9052,23.291 33.1324,12.6393 41.2638,52.7457 -4.5776,61.9994 -32.6697,11.6329 -122.6926,10.6557 -89.79476,26.9653 17.18756,11.2301 28.83566,29.7566 37.28016,47.0824 11.6016,24.6724 -6.1729,35.1954 -22.8149,47.827 -8.8633,7.8785 -27.13862,10.3669 -18.07854,30.7859 5.78514,23.6271 4.93368,60.4548 -12.12155,71.8141 0.0259,0.1227 0.0242,0.2357 0,0.3051 -0.002,0 -0.0217,0.032 -0.0244,0.037 v 0.012 l -0.0122,0.012 -0.0122,0.012 -0.0122,0.012 c -0.005,0 -0.0317,0.01 -0.0366,0.012 l -0.0122,0.012 c -0.0338,0.012 -0.0749,0.015 -0.12207,0.012 z m -0.19531,-11.2304 c 10.5728,0.529 16.56726,-50.0932 3.27148,-64.685 -0.31096,-1.1854 -2.30822,-3.4426 -2.74087,-4.4515 -11.12941,6.6437 -45.78335,12.381 -47.21592,20.4419 2.75121,7.7768 18.11987,24.6153 29.1837,37.4608 -4.28722,-9.853 -8.74648,-24.9143 -9.53691,-36.9351 8.50301,-0.9967 10.07847,23.3155 16.94333,32.3364 3.5139,11.1248 6.99811,15.6775 10.09519,15.8325 z m -134.44797,-40.686 c 8.01389,-19.2837 16.26263,-38.4844 26.00092,-57.0067 19.50232,20.8991 46.17243,45.6716 77.51449,34.0819 15.86411,-4.4739 26.14649,-7.8804 31.62923,-12.768 -12.18467,-17.3643 -26.20777,-2.3643 -64.66139,-17.9936 -34.57458,-20.252 -65.11393,-41.7212 -78.19808,-78.1737 -6.4725,-26.4537 16.38447,-41.5197 43.45694,-43.9452 25.2263,0.895 34.98704,1.661 61.86511,7.9712 59.51808,13.5083 -11.68987,-20.0335 -23.58393,-34.7534 -16.88872,-15.4938 -40.61959,-19.94 -58.3617,-33.4105 -10.2901,-30.1335 20.02899,-65.8179 49.16982,-44.0429 24.99068,21.6391 69.4608,22.7952 77.81967,60.7298 18.04722,-19.7142 39.80582,-45.073 35.32712,-73.596 -9.7107,-21.5767 8.9651,-31.2998 8.5449,-2.6245 -4.5679,28.7923 24.1731,26.9364 42.8099,20.642 29.9245,-2.8724 60.1282,-4.286 89.6605,-10.1074 -14.9542,-8.7489 -26.1519,-20.9387 -34.204,-36.206 -8.0105,-14.8918 -13.4464,-31.1356 -16.7969,-47.8026 -18.9482,6.1916 -39.6232,7.0371 -59.2406,12.561 -17.9788,4.8019 -36.2278,7.8485 -54.5409,9.8755 -6.64604,14.8908 -11.63874,45.8616 -16.88228,12.561 4.16311,-32.4289 18.08758,-64.5482 37.79288,-90.8445 13.0352,-14.5428 24.6565,-32.2452 -3.5156,-16.3696 -4.2919,1.339 -8.8619,2.4397 -13.5376,3.2104 l 0.012,0.012 h 0.012 0.012 c 0,0 0.032,0.022 0.037,0.024 h 0.012 l 0.012,0.012 0.012,0.012 c 0,0.01 0.01,0.031 0.012,0.037 0,0.01 0.01,0.03 0.012,0.037 0.033,0.1446 -0.02,0.426 -0.2075,0.8789 -0.5539,0.2294 -0.8541,0.2421 -0.9643,0.1587 0,0 -0.02,-0.031 -0.024,-0.037 0,-0.01 -0.01,-0.03 -0.012,-0.037 -0.053,-0.2821 0.5517,-0.943 0.9277,-1.0742 -19.80493,3.2351 -41.36672,0.4189 -50.69572,-16.4062 -16.86776,-13.1131 -25.27875,-34.0467 -28.49115,-54.6508 -10.94689,-4.4791 -18.863,32.4961 -23.55952,48.1811 -5.1453,15.1849 -10.79263,29.7383 -10.88865,45.9593 -4.23573,18.8658 -7.7018,37.8982 -11.29148,56.8969 -7.06647,-5.8555 -8.34045,-11.0358 -7.84911,-27.1484 4.78834,-27.0193 -13.55133,9.6385 -18.05416,20.1538 -22.46734,22.2108 -6.95476,52.2611 5.78612,74.7191 9.13739,22.4468 -16.66059,-19.2487 -21.92378,-32.7636 -7.67546,-19.266 -9.74492,-40.0796 -17.77341,-59.1064 -4.03025,-30.0947 -17.157,-58.067 -35.42473,-82.0555 -12.18418,-27.0023 -35.43034,-18.4057 -22.86372,10.2051 18.67684,28.3415 -17.24786,4.2142 -10.93748,-13.7451 0.49694,-42.911 -43.1649302,-5.5828 -19.06735,17.7246 -14.88435,15.5316 -12.23476,-48.5585 -25.9887102,-13.2568 6.6938302,76.2604 65.1261402,159.7808 102.1116102,225.0361 24.15584,28.0456 -27.47669,29.7501 -27.25825,58.5082 -7.08633,26.4016 6.36643,49.6868 15.94235,73.0834 10.66066,37.9855 28.50641,74.3848 50.30508,106.6526 z m 0,-17.9077 c -8.34328,-15.5782 -6.43527,-35.4584 -10.49803,-52.3802 -0.1178,-28.1074 12.71335,17.5628 12.0117,28.723 -1.9725,7.3662 6.72998,18.7582 -1.51367,23.6572 z m 31.56617,-81.2118 c 8.63986,-2.2297 1.18665,-31.7244 -10.72794,-28.4803 l -5.46961,1.4892 c 0.22607,13.2972 13.27061,27.09 16.19755,26.9911 z m 104.63961,-58.8147 c 18.94052,-5.2875 39.28692,-11.4991 58.94762,-14.8193 18.1336,-2.4079 28.4403,-5.4391 50.0487,-9.8877 37.9065,-14.0577 -0.4595,-41.2825 -19.9706,-51.3549 -63.4444,-31.1225 -80.98024,54.043 -90.95443,59.3261 -20.6007,12.6788 2.54312,10.8382 1.92871,16.7358 z m 93.09062,-37.4145 c -0.4296,-10e-4 -0.858,-0.033 -1.2939,-0.085 -37.1734,-10.4331 8.3335,-47.4744 13.3666,-11.9873 -0.062,6.457 -5.6291,12.0891 -12.0727,12.0727 z M 201.74442,1597.583 c 7.46594,0.071 7.86856,-48.6975 -21.63652,-21.9352 -9.72399,8.8201 5.90683,12.4021 13.47654,7.9638 -0.43835,9.3346 6.34786,13.9542 8.15998,13.9714 z m 299.76177,-45.0309 c 1.0981,0.047 1.0209,-3.514 -1.3428,-14.0136 -4.4362,-15.7972 -6.3875,-28.3745 -14.8315,-43.518 -6.4991,-20.7701 -51.7796,-50.352 -60.1073,-23.0957 4.5151,24.7465 48.9685,86.238 54.0526,60.852 1.3632,20.8341 19.5706,20.1482 9.8511,8.0078 -3.1602,-17.2112 9.2803,11.6347 12.3779,11.7675 z M 201.73872,1520.997 c -0.015,0 -0.0483,-0.01 -0.061,-0.012 l -0.0122,-0.012 c -0.005,0 -0.0319,-0.021 -0.0366,-0.024 h -0.0122 l -0.0122,-0.012 v -0.012 l -0.0122,-0.012 c -0.002,-0.01 -0.0105,-0.032 -0.0122,-0.037 v -0.012 -0.012 c -0.022,-0.3375 0.77577,-1.1107 1.09863,-1.062 h 0.0122 l 0.0122,0.012 h 0.0122 l 0.0122,0.012 0.0122,0.012 0.0122,0.012 0.0122,0.012 0.0122,0.012 v 0.012 c 0.0523,0.133 0.009,0.4218 -0.19531,0.9155 -0.4293,0.1779 -0.69239,0.2306 -0.84228,0.2076 z m 278.44187,-6.1889 c -2.7848,-0.018 -7.5929,-2.998 -14.9536,-10.437 -9.4133,-6.561 -21.4823,-23.6502 -14.6484,-35.5834 20.2264,0.5903 40.5268,46.0912 29.602,46.0204 z m -322.17958,-77.368 c 13.19712,-13.6226 24.10941,-27.1285 23.27877,-47.2412 8.05759,-22.7067 -3.99256,-43.5324 -1.80664,-66.6502 1.67037,-5.2643 4.03775,-32.263 7.64158,-47.4364 -0.36977,-1.4596 -0.66366,-3.4962 -0.85449,-6.2134 2.62974,-33.1803 6.53633,-69.8211 -10.49802,-101.9285 -18.57953,-36.8074 -36.53933,-74.476 -59.89978,-108.3738 -8.70128,0.396 -10.56516,34.7985 -10.2783,47.1923 -1.40272,24.7504 -9.69494,64.6903 -39.44084,66.7113 -3.82266,17.8318 -2.53457,37.4784 0.1831,55.8592 5.53316,20.4629 10.24993,24.3094 12.64646,49.4506 -0.0392,30.3223 15.38127,57.7805 28.0395,84.5335 22.63413,18.4847 26.07844,72.0776 50.98866,74.0966 z m 119.88502,-49.9389 c 9.51836,0.3706 17.04544,-7.5183 12.69528,-25.7202 10.57798,20.1861 19.00808,33.6986 40.44178,12.0483 31.0152,-2.5067 3.1689,-49.4992 -15.4418,-56.909 -19.31523,-9.8004 -35.33259,-28.4596 -59.06973,-24.5849 -23.47429,8.5315 -30.0357,31.4634 -18.49362,55.432 6.49739,16.3913 25.20915,-19.7237 20.5566,10.0219 -1.99667,3.6667 -4.38674,5.8797 -3.74755,10.8643 4.71752,11.767 14.66048,18.5206 23.05904,18.8476 z m 11.69431,-36.7187 c -32.16292,-7.2758 -20.81069,-53.4693 8.28856,-27.4169 15.10879,10.6829 9.79469,28.4163 -8.28856,27.4169 z M 93.73112,1181.9962 c -0.015,0 -0.0361,-0.01 -0.0488,-0.012 -0.006,0 -0.0314,-0.022 -0.0366,-0.024 h -0.0122 l -0.0122,-0.012 -0.0122,-0.012 -0.0122,-0.012 v -0.012 l -0.0122,-0.012 c -0.002,0 10e-4,-0.032 0,-0.037 v -0.012 c -0.0216,-0.332 0.7422,-1.0836 1.07421,-1.062 h 0.0122 c 0.005,10e-4 0.0319,0.011 0.0366,0.012 h 0.0122 l 0.0122,0.012 0.0122,0.012 0.0122,0.012 v 0.012 l 0.0122,0.012 0.0122,0.012 c 0.0523,0.133 0.009,0.4218 -0.19531,0.9155 -0.4293,0.1779 -0.7046,0.2306 -0.85449,0.2076 z"
       sodipodi:nodetypes="scccccccccccccccccccccccccccccccccccccccccccccccccccccccccccccccssccccccscccccccccccccccccccccccccccccccccccccccccccccccccccccccccccccsccsccccccsccsscccscccccssccsccccccccccccccccccssccscccccccccccccscccscccscccscccccccccccccccccccccscccsc"
       style="opacity:0.5">
      <title
         id="title1-5">Selection</title>
    </path>
    <path
       id="path1-5-6"
       d="m 1512.5929,1883.7038 c 1.7935,-0.1094 13.3673,-10.7084 42.3461,-40.6859 4.5539,-10.1489 39.9535,-30.3133 60.4369,-44.6533 12.4511,7.3524 26.7115,72.7556 50.8422,29.3091 16.4841,-33.8406 33.9276,-67.5579 44.4579,-103.7352 7.3981,-28.5648 26.4712,-61.4989 5.7617,-88.7449 -9.1422,-17.477 -37.5368,-13.3517 -10.3759,-48.9135 26.8063,-46.9159 116.5024,-186.8334 79.846,-234.6675 -25.1486,-44.3718 -73.5102,-15.1758 -88.9769,20.7275 -17.5377,31.3361 -34.1532,66.2919 -39.0746,101.4891 -8.0522,3.0991 -22.9544,-33.7072 -2.0508,-45.1538 11.8209,-29.7918 32.107,-55.3089 44.6899,-84.8875 13.8575,-22.7176 20.4295,-48.6194 23.0346,-74.7435 9.1058,-37.2858 16.2647,-76.4907 9.2163,-114.7214 -12.9497,-31.8825 -1.6539,29.6902 -16.4428,-4.2115 -2.8104,-3.825 -5.2449,-7.4187 -7.3365,-11.1083 0.069,0 0.1414,-0.011 0.1831,-0.024 0.01,0 0.031,-0.021 0.037,-0.024 l 0.012,-0.012 0.012,-0.012 0.012,-0.012 v -0.012 l 0.012,-0.012 c 0,-0.01 0.011,-0.031 0.012,-0.037 7e-4,-0.01 -10e-5,-0.03 0,-0.037 -0.019,-0.3057 -0.586,-0.9083 -0.9399,-1.0254 -5.0857,-9.3589 -8.021,-19.514 -9.2895,-35.5957 9.8216,-24.448 -10.6778,-47.7917 -7.7759,-72.6561 -5.8761,-3.5022 -12.5477,18.2678 -12.1216,5.8106 -2.1007,26.44 -39.2207,36.3214 -47.1068,63.4398 -13.2729,21.3382 -20.8328,46.1172 -27.7099,70.3001 -3.6002,6.4933 -6.7874,-5.625 -8.0689,-5.7373 -0.014,3e-4 -0.047,0.01 -0.061,0.012 -0.013,0.01 -0.048,0.016 -0.061,0.024 -0.4341,0.3328 -0.5856,2.6083 -0.3662,8.545 -1.5924,25.9281 -4.4392,51.4695 -8.5083,76.8431 2.7319,2.131 8.2029,18.7377 12.6709,26.4403 4.0296,24.7434 14.8484,88.7855 -3.5278,65.6737 -7.3559,-24.4013 -22.7123,-57.5301 -53.0761,-53.3324 -33.4573,-4.2248 -64.9553,15.7541 -89.5384,36.7553 -13.5427,19.9653 -18.7523,52.7828 -3.0395,72.9735 10.7177,12.4974 17.2459,27.8347 28.5156,39.4897 9.9312,22.7859 19.9384,44.0652 -12.4878,31.2987 -31.1849,-6.2535 -63.2558,-10.5688 -93.5911,-19.0185 -18.0012,2.0667 -38.7169,4.8227 -52.5634,17.4316 -12.3637,15.1492 -27.0277,28.5961 -32.1044,48.2909 -1.6301,15.1508 -19.3584,41.1305 3.3081,46.0205 27.241,-3.4849 54.809,3.8922 82.3362,5.0048 27.2176,2.0385 53.9098,6.0345 81.0179,7.7026 13.5348,15.6128 -41.5694,4.3501 -52.9051,23.291 -33.1325,12.6393 -41.2638,52.7458 4.5776,61.9994 32.6697,11.6329 122.6926,10.6557 89.7947,26.9653 -17.1875,11.2301 -28.8356,29.7566 -37.2802,47.0824 -11.6015,24.6724 6.173,35.1954 22.8149,47.8271 8.8634,7.8784 27.1387,10.3668 18.0786,30.7858 -5.7852,23.6271 -4.9337,60.4548 12.1216,71.8141 -0.026,0.1227 -0.024,0.2357 0,0.3051 0,0 0.022,0.032 0.024,0.037 v 0.012 l 0.012,0.012 0.012,0.012 0.012,0.012 c 0,0 0.032,0.01 0.037,0.012 l 0.012,0.012 c 0.034,0.012 0.075,0.015 0.122,0.012 z m 0.1953,-11.2304 c -10.5728,0.529 -16.5673,-50.0932 -3.2715,-64.685 0.311,-1.1853 2.3082,-3.4426 2.7409,-4.4514 11.1294,6.6436 45.7833,12.3809 47.2159,20.4418 -2.7512,7.7768 -18.1199,24.6153 -29.1837,37.4609 4.2872,-9.8531 8.7465,-24.9144 9.5369,-36.9352 -8.503,-0.9967 -10.0784,23.3155 -16.9433,32.3364 -3.5139,11.1248 -6.9981,15.6775 -10.0952,15.8325 z m 134.448,-40.686 c -8.0139,-19.2837 -16.2627,-38.4844 -26.0009,-57.0067 -19.5024,20.8991 -46.1725,45.6717 -77.5145,34.082 -15.8641,-4.474 -26.1465,-7.8805 -31.6293,-12.7681 12.1847,-17.3643 26.2078,-2.3643 64.6614,-17.9936 34.5746,-20.252 65.114,-41.7211 78.1981,-78.1737 6.4725,-26.4537 -16.3845,-41.5197 -43.4569,-43.9452 -25.2263,0.895 -34.9871,1.661 -61.8651,7.9712 -59.5182,13.5084 11.6898,-20.0335 23.5839,-34.7534 16.8887,-15.4938 40.6196,-19.94 58.3617,-33.4105 10.2901,-30.1335 -20.029,-65.8179 -49.1698,-44.0429 -24.9907,21.6391 -69.4608,22.7952 -77.8197,60.7298 -18.0473,-19.7142 -39.8058,-45.073 -35.3271,-73.596 9.7107,-21.5767 -8.9651,-31.2998 -8.5449,-2.6245 4.5678,28.7923 -24.1731,26.9364 -42.81,20.642 -29.9245,-2.8723 -60.1281,-4.286 -89.6604,-10.1074 14.9542,-8.7489 26.1519,-20.9387 34.204,-36.2059 8.0105,-14.8919 13.4464,-31.1357 16.7969,-47.8027 18.9481,6.1916 39.6232,7.0372 59.2406,12.561 17.9788,4.8019 36.2278,7.8485 54.5409,9.8755 6.646,14.8908 11.6387,45.8616 16.8823,12.561 -4.1632,-32.4289 -18.0876,-64.5482 -37.7929,-90.8445 -13.0352,-14.5428 -24.6565,-32.2452 3.5156,-16.3696 4.2919,1.339 8.8619,2.4397 13.5375,3.2104 l -0.012,0.012 h -0.012 -0.012 c 0,0 -0.032,0.022 -0.037,0.024 h -0.012 l -0.012,0.012 -0.012,0.012 c 0,0.01 -0.01,0.031 -0.012,0.037 0,0.01 -0.01,0.03 -0.012,0.037 -0.033,0.1446 0.02,0.426 0.2076,0.8789 0.5539,0.2295 0.8541,0.2421 0.9643,0.1587 0.01,0 0.021,-0.031 0.024,-0.037 0,-0.01 0.01,-0.03 0.012,-0.037 0.053,-0.2821 -0.5518,-0.9429 -0.9277,-1.0742 19.8049,3.2352 41.3667,0.4189 50.6957,-16.4062 16.8678,-13.113 25.2787,-34.0467 28.4911,-54.6508 10.9469,-4.4791 18.863,32.4961 23.5596,48.1811 5.1453,15.1849 10.7926,29.7383 10.8886,45.9593 4.2357,18.8658 7.7018,37.8982 11.2915,56.8969 7.0665,-5.8555 8.3404,-11.0358 7.8491,-27.1484 -4.7883,-27.0193 13.5513,9.6385 18.0542,20.1538 22.4673,22.2108 6.9547,52.2611 -5.7862,74.7191 -9.1373,22.4468 16.6606,-19.2487 21.9238,-32.7636 7.6755,-19.266 9.7449,-40.0795 17.7734,-59.1064 4.0303,-30.0947 17.1571,-58.0669 35.4248,-82.0555 12.1842,-27.0023 35.4303,-18.4057 22.8637,10.2051 -18.6768,28.3415 17.2479,4.2142 10.9375,-13.7451 -0.4969,-42.911 43.1649,-5.5828 19.0673,17.7246 14.8844,15.5316 12.2348,-48.5585 25.9888,-13.2568 -6.6939,76.2604 -65.1262,159.7808 -102.1117,225.0361 -24.1558,28.0456 27.4767,29.7502 27.2583,58.5082 7.0863,26.4016 -6.3664,49.6868 -15.9424,73.0834 -10.6606,37.9855 -28.5064,74.3848 -50.3051,106.6526 z m 0,-17.9077 c 8.3433,-15.5782 6.4352,-35.4584 10.498,-52.3802 0.1178,-28.1074 -12.7133,17.5628 -12.0117,28.7231 1.9725,7.3661 -6.73,18.7581 1.5137,23.6571 z m -31.5662,-81.2118 c -8.6399,-2.2297 -1.1866,-31.7244 10.7279,-28.4803 l 5.4697,1.4892 c -0.2261,13.2972 -13.2707,27.09 -16.1976,26.9911 z m -104.6396,-58.8147 c -18.9405,-5.2875 -39.2869,-11.4991 -58.9476,-14.8193 -18.1336,-2.4079 -28.4403,-5.4391 -50.0488,-9.8877 -37.9064,-14.0577 0.4596,-41.2825 19.9707,-51.3549 63.4443,-31.1224 80.9802,54.043 90.9544,59.3261 20.6007,12.6788 -2.5431,10.8382 -1.9287,16.7358 z m -93.0906,-37.4145 c 0.4295,-10e-4 0.858,-0.033 1.2939,-0.085 37.1734,-10.4331 -8.3335,-47.4743 -13.3667,-11.9873 0.062,6.457 5.6292,12.0891 12.0728,12.0727 z m 173.1384,-38.8557 c -7.4659,0.071 -7.8685,-48.6975 21.6366,-21.9352 9.724,8.8201 -5.9069,12.4021 -13.4766,7.9638 0.4384,9.3346 -6.3478,13.9542 -8.16,13.9714 z m -299.7617,-45.0309 c -1.0981,0.047 -1.0209,-3.514 1.3428,-14.0136 4.4362,-15.7971 6.3875,-28.3745 14.8315,-43.518 6.4991,-20.7701 51.7796,-50.352 60.1073,-23.0956 -4.5151,24.7464 -48.9685,86.2379 -54.0527,60.8519 -1.3631,20.8341 -19.5705,20.1482 -9.851,8.0078 3.1602,-17.2111 -9.2803,11.6347 -12.3779,11.7675 z m 299.7674,-31.5551 c 0.015,0 0.048,-0.01 0.061,-0.012 l 0.012,-0.012 c 0.01,0 0.032,-0.021 0.037,-0.024 h 0.012 l 0.012,-0.012 v -0.012 l 0.012,-0.012 c 0,-0.01 0.011,-0.032 0.012,-0.037 v -0.012 -0.012 c 0.022,-0.3375 -0.7757,-1.1106 -1.0986,-1.062 h -0.012 l -0.012,0.012 h -0.012 l -0.012,0.012 -0.012,0.012 -0.012,0.012 -0.012,0.012 -0.012,0.012 v 0.012 c -0.052,0.133 -0.01,0.4218 0.1953,0.9155 0.4293,0.1779 0.6924,0.2306 0.8423,0.2076 z m -278.4418,-6.1889 c 2.7848,-0.018 7.5929,-2.998 14.9536,-10.437 9.4132,-6.561 21.4823,-23.6502 14.6484,-35.5834 -20.2264,0.5903 -40.5269,46.0912 -29.602,46.0204 z m 322.1796,-77.368 c -13.1972,-13.6226 -24.1095,-27.1285 -23.2788,-47.2412 -8.0576,-22.7067 3.9925,-43.5324 1.8066,-66.6502 -1.6703,-5.2643 -4.0377,-32.263 -7.6416,-47.4364 0.3698,-1.4596 0.6637,-3.4962 0.8545,-6.2134 -2.6297,-33.1802 -6.5363,-69.8211 10.4981,-101.9285 18.5795,-36.8074 36.5393,-74.476 59.8997,-108.3738 8.7013,0.396 10.5652,34.7985 10.2783,47.1923 1.4028,24.7504 9.695,64.6903 39.4409,66.7113 3.8227,17.8318 2.5346,37.4784 -0.1831,55.8592 -5.5332,20.4629 -10.2499,24.3094 -12.6465,49.4506 0.039,30.3223 -15.3812,57.7805 -28.0395,84.5335 -22.6341,18.4847 -26.0784,72.0776 -50.9886,74.0966 z m -119.8851,-49.9389 c -9.5183,0.3706 -17.0454,-7.5182 -12.6952,-25.7202 -10.578,20.1861 -19.0081,33.6986 -40.4419,12.0484 -31.0151,-2.5068 -3.1688,-49.4993 15.4419,-56.9091 19.3152,-9.8004 35.3326,-28.4596 59.0697,-24.5849 23.4743,8.5315 30.0357,31.4634 18.4936,55.432 -6.4974,16.3913 -25.2091,-19.7237 -20.5566,10.022 1.9967,3.6666 4.3868,5.8796 3.7476,10.8642 -4.7175,11.767 -14.6605,18.5206 -23.0591,18.8476 z m -11.6943,-36.7187 c 32.1629,-7.2757 20.8107,-53.4692 -8.2885,-27.4169 -15.1088,10.683 -9.7948,28.4163 8.2885,27.4169 z m 195.8493,-168.7863 c 0.015,0 0.036,-0.01 0.049,-0.012 0.01,0 0.031,-0.022 0.037,-0.024 h 0.012 l 0.012,-0.012 0.012,-0.012 0.012,-0.012 v -0.012 l 0.012,-0.012 c 0,0 0,-0.032 0,-0.037 v -0.012 c 0.022,-0.332 -0.7422,-1.0836 -1.0742,-1.062 h -0.012 c -0.01,10e-4 -0.032,0.011 -0.037,0.012 h -0.012 l -0.012,0.012 -0.012,0.012 -0.012,0.012 v 0.012 l -0.012,0.012 -0.012,0.012 c -0.052,0.133 -0.01,0.4218 0.1953,0.9155 0.4293,0.1779 0.7046,0.2306 0.8545,0.2076 z"
       sodipodi:nodetypes="scccccccccccccccccccccccccccccccccccccccccccccccccccccccccccccccssccccccscccccccccccccccccccccccccccccccccccccccccccccccccccccccccccccsccsccccccsccsscccscccccssccsccccccccccccccccccssccscccccccccccccscccscccscccscccccccccccccccccccccscccsc"
       style="opacity:0.5">
      <title
         id="title1-3-2">Selection</title>
    </path>
    <path
       id="path1-7-9"
       d="m 921.29119,1029.1576 c -1.7935,0.1094 -13.3672,10.7085 -42.3461,40.6859 -4.5538,10.1489 -39.9535,30.3134 -60.4369,44.6533 -12.4511,-7.3524 -26.7114,-72.7556 -50.8421,-29.309 -16.4841,33.8405 -33.9277,67.5578 -44.458,103.7351 -7.3981,28.5648 -26.4711,61.499 -5.7617,88.7449 9.1422,17.477 37.5369,13.3517 10.376,48.9135 -26.8063,46.916 -116.5024,186.8334 -79.846,234.6675 25.1486,44.3718 73.5102,15.1758 88.9768,-20.7275 17.5377,-31.3361 34.1532,-66.2919 39.0747,-101.489 8.0521,-3.0992 22.9543,33.7071 2.0507,45.1537 -11.8208,29.7918 -32.107,55.3089 -44.6898,84.8875 -13.8575,22.7177 -20.4296,48.6194 -23.0346,74.7435 -9.1059,37.2859 -16.2648,76.4907 -9.2163,114.7215 12.9496,31.8825 1.6539,-29.6903 16.4428,4.2114 2.8103,3.825 5.2449,7.4187 7.3364,11.1084 -0.069,0 -0.1413,0.011 -0.1831,0.024 -0.01,0 -0.031,0.021 -0.037,0.024 l -0.012,0.012 -0.012,0.012 -0.012,0.012 v 0.012 l -0.012,0.012 c 0,0 -0.011,0.031 -0.012,0.037 -6e-4,0.01 2e-4,0.03 0,0.037 0.019,0.3056 0.5861,0.9082 0.94,1.0253 5.0856,9.3589 8.021,19.514 9.2895,35.5957 -9.8216,24.448 10.6777,47.7917 7.7759,72.6561 5.8761,3.5022 12.5476,-18.2678 12.1215,-5.8106 2.1007,-26.44 39.2207,-36.3214 47.1069,-63.4398 13.2728,-21.3382 20.8328,-46.1172 27.7099,-70.3001 3.6002,-6.4933 6.7873,5.625 8.0688,5.7373 0.014,-3e-4 0.047,-0.01 0.061,-0.012 0.013,0 0.048,-0.016 0.061,-0.024 0.4341,-0.3328 0.5856,-2.6083 0.3662,-8.5449 1.5925,-25.9282 4.4392,-51.4696 8.5083,-76.8431 -2.7319,-2.1311 -8.2028,-18.7378 -12.6709,-26.4404 -4.0296,-24.7434 -14.8483,-88.7854 3.5278,-65.6737 7.356,24.4013 22.7124,57.5301 53.0761,53.3324 33.4573,4.2248 64.9554,-15.7541 89.5384,-36.7553 13.5428,-19.9652 18.7524,-52.7828 3.0395,-72.9735 -10.7177,-12.4973 -17.2458,-27.8347 -28.5155,-39.4897 -9.9312,-22.7859 -19.9384,-44.0652 12.4877,-31.2987 31.1849,6.2535 63.25581,10.5689 93.59121,19.0185 18.0012,-2.0667 38.7169,-4.8227 52.5633,-17.4316 12.3637,-15.1492 27.0277,-28.5961 32.1045,-48.2909 1.63,-15.1508 19.3583,-41.1305 -3.3081,-46.0204 -27.2411,3.4848 -54.8091,-3.8923 -82.3363,-5.0049 -27.2176,-2.0384 -53.9098,-6.0345 -81.01791,-7.7026 -13.5348,-15.6128 41.56941,-4.35 52.90521,-23.291 33.1324,-12.6393 41.2637,-52.7457 -4.5777,-61.9994 -32.66961,-11.6329 -122.69251,-10.6557 -89.79471,-26.9653 17.1875,-11.2301 28.8357,-29.7566 37.2802,-47.0824 11.6015,-24.6724 -6.173,-35.1954 -22.8149,-47.827 -8.8633,-7.8785 -27.1387,-10.3669 -18.0786,-30.7859 5.7852,-23.6271 4.9337,-60.4548 -12.1215,-71.8141 0.026,-0.1228 0.024,-0.2357 0,-0.3052 0,0 -0.022,-0.032 -0.024,-0.037 v -0.012 l -0.012,-0.012 -0.012,-0.012 -0.012,-0.012 c -0.01,0 -0.032,-0.01 -0.037,-0.012 l -0.012,-0.012 c -0.034,-0.012 -0.075,-0.015 -0.1221,-0.012 z m -0.1953,11.2304 c 10.5728,-0.5289 16.5673,50.0932 3.2715,64.685 -0.3109,1.1854 -2.3082,3.4426 -2.7409,4.4515 -11.1294,-6.6437 -45.7833,-12.381 -47.2159,-20.4419 2.7512,-7.7768 18.1199,-24.6153 29.1837,-37.4608 -4.2872,9.853 -8.7465,24.9143 -9.5369,36.9351 8.503,0.9967 10.0785,-23.3155 16.9433,-32.3364 3.5139,-11.1248 6.9982,-15.6775 10.0952,-15.8325 z m -134.4479,40.686 c 8.0139,19.2837 16.2626,38.4844 26.0009,57.0067 19.5023,-20.8991 46.1724,-45.6716 77.5145,-34.0819 15.8641,4.4739 26.1465,7.8804 31.6292,12.768 -12.1847,17.3643 -26.2078,2.3643 -64.6614,17.9936 -34.5746,20.2521 -65.1139,41.7212 -78.1981,78.1737 -6.4725,26.4537 16.3845,41.5197 43.457,43.9452 25.2263,-0.895 34.987,-1.661 61.8651,-7.9712 59.5181,-13.5083 -11.6899,20.0335 -23.5839,34.7534 -16.8888,15.4938 -40.6196,19.94 -58.3617,33.4106 -10.2901,30.1334 20.0289,65.8178 49.1698,44.0428 24.9907,-21.6391 69.4608,-22.7952 77.8196,-60.7298 18.0473,19.7142 39.8058,45.073 35.3271,73.596 -9.7106,21.5767 8.9652,31.2998 8.5449,2.6245 -4.5678,-28.7923 24.1732,-26.9364 42.81001,-20.642 29.9245,2.8724 60.1282,4.286 89.6605,10.1074 -14.9542,8.7489 -26.1519,20.9387 -34.2041,36.206 -8.0105,14.8918 -13.4463,31.1356 -16.7968,47.8026 -18.9482,-6.1916 -39.6233,-7.0371 -59.24061,-12.561 -17.9788,-4.8019 -36.2279,-7.8485 -54.5409,-9.8755 -6.6461,-14.8907 -11.6388,-45.8616 -16.8823,-12.561 4.1631,32.4289 18.0875,64.5482 37.7929,90.8446 13.0351,14.5427 24.6565,32.2451 -3.5156,16.3696 -4.2919,-1.3391 -8.862,-2.4398 -13.5376,-3.2105 l 0.012,-0.012 h 0.012 0.012 c 0,0 0.032,-0.022 0.037,-0.024 h 0.012 l 0.012,-0.012 0.012,-0.012 c 0,0 0.01,-0.031 0.012,-0.037 0,-0.01 0.01,-0.03 0.012,-0.037 0.033,-0.1446 -0.02,-0.426 -0.2075,-0.8789 -0.554,-0.2294 -0.8542,-0.2421 -0.9644,-0.1587 -0.01,0 -0.021,0.031 -0.024,0.037 0,0.01 -0.01,0.03 -0.012,0.037 -0.053,0.2821 0.5518,0.943 0.9277,1.0742 -19.8049,-3.2351 -41.3667,-0.4189 -50.6957,16.4062 -16.8677,13.1131 -25.2787,34.0467 -28.4911,54.6508 -10.9469,4.4791 -18.863,-32.4961 -23.5595,-48.181 -5.1453,-15.185 -10.7927,-29.7384 -10.8887,-45.9594 -4.2357,-18.8658 -7.7018,-37.8982 -11.2915,-56.8969 -7.0664,5.8555 -8.3404,11.0359 -7.8491,27.1484 4.7884,27.0193 -13.5513,-9.6385 -18.0541,-20.1538 -22.4674,-22.2108 -6.9548,-52.2611 5.7861,-74.7191 9.1374,-22.4468 -16.6606,19.2487 -21.9238,32.7637 -7.6754,19.2659 -9.7449,40.0795 -17.7734,59.1063 -4.0302,30.0947 -17.157,58.067 -35.4247,82.0555 -12.1842,27.0023 -35.4304,18.4057 -22.8637,-10.2051 18.6768,-28.3415 -17.2479,-4.2142 -10.9375,13.7451 0.4969,42.911 -43.1649,5.5828 -19.0674,-17.7246 -14.8843,-15.5316 -12.2347,48.5585 -25.9887,13.2568 6.6939,-76.2604 65.1262,-159.7808 102.1116,-225.0361 24.1559,-28.0456 -27.4767,-29.7501 -27.2582,-58.5082 -7.0864,-26.4016 6.3664,-49.6868 15.9423,-73.0834 10.6607,-37.9855 28.5064,-74.3848 50.3051,-106.6526 z m 0,17.9077 c -8.3433,15.5782 -6.4353,35.4584 -10.4981,52.3802 -0.1178,28.1074 12.7134,-17.5628 12.0117,-28.723 -1.9725,-7.3662 6.73,-18.7582 -1.5136,-23.6572 z m 31.5661,81.2118 c 8.6399,2.2297 1.1867,31.7244 -10.7279,28.4803 l -5.4696,-1.4892 c 0.2261,-13.2971 13.2706,-27.09 16.1975,-26.9911 z m 104.6396,58.8147 c 18.9405,5.2875 39.2869,11.4991 58.9477,14.8194 18.1335,2.4078 28.44031,5.439 50.04871,9.8876 37.9064,14.0577 -0.4595,41.2825 -19.9707,51.3549 -63.44431,31.1225 -80.98021,-54.043 -90.95441,-59.326 -20.6007,-12.6789 2.5432,-10.8383 1.9287,-16.7359 z m 93.09071,37.4145 c -0.4296,10e-4 -0.858,0.033 -1.294,0.085 -37.17331,10.4331 8.3336,47.4744 13.3667,11.9873 -0.062,-6.457 -5.6291,-12.0891 -12.0727,-12.0727 z m -173.13851,38.8557 c 7.4659,-0.071 7.8686,48.6975 -21.6365,21.9352 -9.724,-8.82 5.9068,-12.4021 13.4765,-7.9638 -0.4383,-9.3346 6.3479,-13.9542 8.16,-13.9714 z m 299.76181,45.0309 c 1.098,-0.047 1.0208,3.514 -1.3428,14.0136 -4.4363,15.7972 -6.3876,28.3745 -14.8315,43.518 -6.4991,20.7701 -51.7796,50.352 -60.1073,23.0957 4.515,-24.7465 48.9684,-86.238 54.0526,-60.852 1.3631,-20.8341 19.5706,-20.1482 9.8511,-8.0078 -3.1602,17.2112 9.2803,-11.6347 12.3779,-11.7675 z m -299.76751,31.5551 c -0.015,0 -0.048,0.01 -0.061,0.012 l -0.012,0.012 c -0.01,0 -0.032,0.021 -0.037,0.024 h -0.012 l -0.012,0.012 v 0.012 l -0.012,0.012 c 0,0.01 -0.01,0.032 -0.012,0.037 v 0.012 0.012 c -0.022,0.3375 0.7758,1.1107 1.0986,1.062 h 0.012 l 0.012,-0.012 h 0.012 l 0.012,-0.012 0.012,-0.012 0.012,-0.012 0.012,-0.012 0.012,-0.012 v -0.012 c 0.052,-0.133 0.01,-0.4218 -0.1953,-0.9155 -0.4293,-0.1779 -0.6924,-0.2306 -0.8423,-0.2076 z m 278.44181,6.1889 c -2.7848,0.018 -7.5928,2.998 -14.9536,10.437 -9.4132,6.561 -21.4822,23.6502 -14.6484,35.5835 20.2264,-0.5904 40.5269,-46.0913 29.602,-46.0205 z m -322.17951,77.368 c 13.1971,13.6226 24.1094,27.1285 23.2788,47.2412 8.0575,22.7068 -3.9926,43.5324 -1.8067,66.6502 1.6704,5.2643 4.0378,32.263 7.6416,47.4364 -0.3698,1.4596 -0.6637,3.4962 -0.8545,6.2134 2.6297,33.1803 6.5363,69.8211 -10.498,101.9285 -18.5795,36.8074 -36.5393,74.476 -59.8998,108.3738 -8.7013,-0.396 -10.5652,-34.7985 -10.2783,-47.1923 -1.4027,-24.7504 -9.6949,-64.6903 -39.4408,-66.7113 -3.8227,-17.8318 -2.5346,-37.4784 0.1831,-55.8592 5.5331,-20.4629 10.2499,-24.3094 12.6464,-49.4506 -0.039,-30.3223 15.3813,-57.7805 28.0395,-84.5335 22.6342,-18.4847 26.0785,-72.0776 50.9887,-74.0966 z m 119.885,49.9389 c 9.5184,-0.3705 17.0454,7.5183 12.6953,25.7202 10.5779,-20.1861 19.008,-33.6985 40.4418,-12.0483 31.01521,2.5067 3.1688,49.4992 -15.4419,56.909 -19.3152,9.8004 -35.3325,28.4596 -59.0697,24.5849 -23.4743,-8.5315 -30.0357,-31.4634 -18.4936,-55.432 6.4974,-16.3913 25.2092,19.7237 20.5566,-10.0219 -1.9967,-3.6667 -4.3867,-5.8797 -3.7475,-10.8643 4.7175,-11.767 14.6604,-18.5206 23.059,-18.8476 z m 11.6943,36.7187 c -32.1629,7.2758 -20.8107,53.4692 8.2886,27.4169 15.1088,-10.6829 9.7947,-28.4163 -8.2886,-27.4169 z m -195.8492,168.7863 c -0.015,0 -0.036,0.01 -0.049,0.012 -0.01,0 -0.031,0.022 -0.037,0.024 h -0.012 l -0.012,0.012 -0.012,0.012 -0.012,0.012 v 0.012 l -0.012,0.012 c 0,0 0.001,0.032 0,0.037 v 0.012 c -0.022,0.332 0.7422,1.0836 1.0742,1.062 h 0.012 c 0.01,-10e-4 0.032,-0.01 0.037,-0.012 h 0.012 l 0.012,-0.012 0.012,-0.012 0.012,-0.012 v -0.012 l 0.012,-0.012 0.012,-0.012 c 0.052,-0.133 0.01,-0.4218 -0.1953,-0.9155 -0.4293,-0.1779 -0.7046,-0.2306 -0.8545,-0.2076 z"
       sodipodi:nodetypes="scccccccccccccccccccccccccccccccccccccccccccccccccccccccccccccccssccccccscccccccccccccccccccccccccccccccccccccccccccccccccccccccccccccsccsccccccsccsscccscccccssccsccccccccccccccccccssccscccccccccccccscccscccscccscccccccccccccccccccccscccsc"
       style="opacity:0.5">
      <title
         id="title1-9-1">Selection</title>
    </path>
    <path
       id="path1-5-2-2"
       d="m 2153.6547,1029.1575 c 1.7935,0.1095 13.3673,10.7085 42.3461,40.686 4.5539,10.1489 39.9535,30.3133 60.4369,44.6533 12.4511,-7.3524 26.7115,-72.7556 50.8422,-29.3091 16.4841,33.8406 33.9276,67.5579 44.4579,103.7352 7.3981,28.5648 26.4712,61.499 5.7617,88.7449 -9.1422,17.477 -37.5368,13.3517 -10.3759,48.9135 26.8063,46.9159 116.5024,186.8334 79.846,234.6675 -25.1486,44.3718 -73.5102,15.1758 -88.9769,-20.7275 -17.5377,-31.3361 -34.1532,-66.2919 -39.0746,-101.489 -8.0522,-3.0992 -22.9544,33.7071 -2.0508,45.1537 11.8209,29.7918 32.107,55.3089 44.6899,84.8875 13.8575,22.7176 20.4295,48.6194 23.0346,74.7435 9.1058,37.2858 16.2647,76.4907 9.2163,114.7214 -12.9497,31.8825 -1.6539,-29.6902 -16.4428,4.2115 -2.8104,3.825 -5.2449,7.4187 -7.3365,11.1083 0.069,0 0.1414,0.011 0.1831,0.024 0.01,0 0.031,0.021 0.037,0.024 l 0.012,0.012 0.012,0.012 0.012,0.012 v 0.012 l 0.012,0.012 c 0,0 0.011,0.031 0.012,0.037 7e-4,0.01 -1e-4,0.03 0,0.037 -0.019,0.3057 -0.586,0.9083 -0.9399,1.0254 -5.0857,9.3589 -8.021,19.514 -9.2895,35.5957 9.8216,24.448 -10.6778,47.7917 -7.7759,72.6561 -5.8761,3.5022 -12.5477,-18.2678 -12.1216,-5.8106 -2.1007,-26.44 -39.2207,-36.3214 -47.1068,-63.4398 -13.2729,-21.3382 -20.8328,-46.1172 -27.7099,-70.3001 -3.6002,-6.4933 -6.7874,5.625 -8.0689,5.7373 -0.014,-3e-4 -0.047,-0.01 -0.061,-0.012 -0.013,0 -0.048,-0.016 -0.061,-0.024 -0.4341,-0.3328 -0.5856,-2.6083 -0.3662,-8.5449 -1.5924,-25.9282 -4.4392,-51.4696 -8.5083,-76.8432 2.7319,-2.131 8.2029,-18.7377 12.6709,-26.4403 4.0296,-24.7434 14.8484,-88.7854 -3.5278,-65.6737 -7.3559,24.4013 -22.7123,57.5301 -53.0761,53.3324 -33.4573,4.2248 -64.9553,-15.7541 -89.5384,-36.7553 -13.5427,-19.9652 -18.7523,-52.7828 -3.0395,-72.9735 10.7177,-12.4974 17.2459,-27.8347 28.5156,-39.4897 9.9312,-22.7859 19.9384,-44.0652 -12.4878,-31.2987 -31.1849,6.2535 -63.2558,10.5689 -93.5911,19.0185 -18.0012,-2.0667 -38.7169,-4.8227 -52.5634,-17.4316 -12.3637,-15.1492 -27.0277,-28.5961 -32.1044,-48.2909 -1.6301,-15.1508 -19.3584,-41.1305 3.3081,-46.0205 27.241,3.4849 54.809,-3.8922 82.3362,-5.0048 27.2176,-2.0385 53.9098,-6.0345 81.0179,-7.7027 13.5348,-15.6127 -41.5694,-4.3499 -52.9051,-23.2909 -33.1325,-12.6393 -41.2638,-52.7458 4.5776,-61.9994 32.6697,-11.6329 122.6926,-10.6557 89.7947,-26.9653 -17.1875,-11.2301 -28.8356,-29.7566 -37.2802,-47.0824 -11.6015,-24.6724 6.173,-35.1954 22.8149,-47.8271 8.8634,-7.8784 27.1387,-10.3668 18.0786,-30.7859 -5.7852,-23.627 -4.9337,-60.4547 12.1216,-71.814 -0.026,-0.1228 -0.024,-0.2358 0,-0.3052 0,0 0.022,-0.032 0.024,-0.037 v -0.012 l 0.012,-0.012 0.012,-0.012 0.012,-0.012 c 0,0 0.032,-0.01 0.037,-0.012 l 0.012,-0.012 c 0.034,-0.012 0.075,-0.015 0.122,-0.012 z m 0.1953,11.2305 c -10.5728,-0.529 -16.5673,50.0932 -3.2715,64.685 0.311,1.1853 2.3082,3.4426 2.7409,4.4514 11.1294,-6.6436 45.7833,-12.3809 47.2159,-20.4418 -2.7512,-7.7768 -18.1199,-24.6153 -29.1837,-37.4609 4.2872,9.8531 8.7465,24.9144 9.5369,36.9352 -8.503,0.9967 -10.0784,-23.3155 -16.9433,-32.3364 -3.5139,-11.1248 -6.9981,-15.6775 -10.0952,-15.8325 z m 134.448,40.686 c -8.0139,19.2837 -16.2627,38.4844 -26.0009,57.0067 -19.5024,-20.8991 -46.1725,-45.6717 -77.5145,-34.082 -15.8641,4.474 -26.1465,7.8805 -31.6293,12.7681 12.1847,17.3643 26.2078,2.3643 64.6614,17.9936 34.5746,20.252 65.114,41.7212 78.1981,78.1737 6.4725,26.4537 -16.3845,41.5197 -43.4569,43.9452 -25.2263,-0.895 -34.9871,-1.661 -61.8651,-7.9712 -59.5182,-13.5084 11.6898,20.0335 23.5839,34.7534 16.8887,15.4938 40.6196,19.94 58.3617,33.4105 10.2901,30.1335 -20.029,65.8179 -49.1698,44.0429 -24.9907,-21.6391 -69.4608,-22.7952 -77.8197,-60.7298 -18.0473,19.7142 -39.8058,45.073 -35.3271,73.596 9.7107,21.5767 -8.9651,31.2998 -8.5449,2.6245 4.5678,-28.7923 -24.1731,-26.9364 -42.81,-20.642 -29.9245,2.8724 -60.1281,4.286 -89.6604,10.1074 14.9542,8.7489 26.1519,20.9387 34.204,36.206 8.0105,14.8918 13.4464,31.1356 16.7969,47.8026 18.9481,-6.1916 39.6232,-7.0371 59.2406,-12.561 17.9788,-4.8019 36.2278,-7.8485 54.5409,-9.8755 6.646,-14.8908 11.6387,-45.8616 16.8823,-12.561 -4.1632,32.4289 -18.0876,64.5482 -37.7929,90.8445 -13.0352,14.5428 -24.6565,32.2452 3.5156,16.3696 4.2919,-1.339 8.8619,-2.4397 13.5375,-3.2104 l -0.012,-0.012 h -0.012 -0.012 c 0,0 -0.032,-0.022 -0.037,-0.024 h -0.012 l -0.012,-0.012 -0.012,-0.012 c 0,0 -0.01,-0.031 -0.012,-0.037 0,-0.01 -0.01,-0.03 -0.012,-0.037 -0.033,-0.1446 0.02,-0.426 0.2076,-0.8789 0.5539,-0.2294 0.8541,-0.2421 0.9643,-0.1587 0.01,0 0.021,0.031 0.024,0.037 0,0.01 0.01,0.03 0.012,0.037 0.053,0.2821 -0.5518,0.943 -0.9277,1.0742 19.8049,-3.2352 41.3667,-0.4189 50.6957,16.4062 16.8678,13.1131 25.2787,34.0467 28.4911,54.6508 10.9469,4.4791 18.863,-32.4961 23.5596,-48.1811 5.1453,-15.1849 10.7926,-29.7383 10.8886,-45.9593 4.2357,-18.8658 7.7018,-37.8982 11.2915,-56.8969 7.0665,5.8555 8.3404,11.0358 7.8491,27.1484 -4.7883,27.0193 13.5513,-9.6385 18.0542,-20.1538 22.4673,-22.2108 6.9547,-52.2611 -5.7862,-74.7191 -9.1373,-22.4469 16.6606,19.2487 21.9238,32.7636 7.6755,19.266 9.7449,40.0796 17.7734,59.1064 4.0303,30.0947 17.1571,58.0669 35.4248,82.0555 12.1842,27.0023 35.4303,18.4056 22.8637,-10.2051 -18.6768,-28.3415 17.2479,-4.2142 10.9375,13.7451 -0.4969,42.911 43.1649,5.5828 19.0673,-17.7246 14.8844,-15.5316 12.2348,48.5585 25.9888,13.2568 -6.6939,-76.2604 -65.1262,-159.7808 -102.1117,-225.0361 -24.1558,-28.0456 27.4767,-29.7502 27.2583,-58.5082 7.0863,-26.4016 -6.3664,-49.6868 -15.9424,-73.0834 -10.6606,-37.9855 -28.5064,-74.3848 -50.3051,-106.6526 z m 0,17.9077 c 8.3433,15.5782 6.4352,35.4584 10.498,52.3802 0.1178,28.1074 -12.7133,-17.5628 -12.0117,-28.7231 1.9725,-7.3661 -6.73,-18.7581 1.5137,-23.6571 z m -31.5662,81.2118 c -8.6399,2.2297 -1.1866,31.7244 10.7279,28.4803 l 5.4697,-1.4892 c -0.2261,-13.2972 -13.2707,-27.09 -16.1976,-26.9911 z m -104.6396,58.8147 c -18.9405,5.2875 -39.2869,11.4991 -58.9476,14.8193 -18.1336,2.4079 -28.4403,5.4391 -50.0488,9.8877 -37.9064,14.0577 0.4596,41.2825 19.9707,51.3549 63.4443,31.1225 80.9802,-54.043 90.9544,-59.3261 20.6007,-12.6788 -2.5431,-10.8382 -1.9287,-16.7358 z m -93.0906,37.4145 c 0.4295,10e-4 0.858,0.033 1.2939,0.085 37.1734,10.4331 -8.3335,47.4744 -13.3667,11.9873 0.062,-6.457 5.6292,-12.0891 12.0728,-12.0727 z m 173.1384,38.8557 c -7.4659,-0.071 -7.8685,48.6975 21.6366,21.9352 9.724,-8.8201 -5.9069,-12.4021 -13.4766,-7.9638 0.4384,-9.3346 -6.3478,-13.9542 -8.16,-13.9714 z m -299.7617,45.0309 c -1.0981,-0.047 -1.0209,3.514 1.3428,14.0136 4.4362,15.7972 6.3875,28.3745 14.8315,43.518 6.4991,20.7701 51.7796,50.352 60.1073,23.0956 -4.5151,-24.7464 -48.9685,-86.2379 -54.0527,-60.8519 -1.3631,-20.8341 -19.5705,-20.1482 -9.851,-8.0078 3.1602,17.2111 -9.2803,-11.6347 -12.3779,-11.7675 z m 299.7674,31.5551 c 0.015,0 0.048,0.01 0.061,0.012 l 0.012,0.012 c 0.01,0 0.032,0.021 0.037,0.024 h 0.012 l 0.012,0.012 v 0.012 l 0.012,0.012 c 0,0.01 0.011,0.032 0.012,0.037 v 0.012 0.012 c 0.022,0.3375 -0.7757,1.1106 -1.0986,1.062 h -0.012 l -0.012,-0.012 h -0.012 l -0.012,-0.012 -0.012,-0.012 -0.012,-0.012 -0.012,-0.012 -0.012,-0.012 v -0.012 c -0.052,-0.133 -0.01,-0.4218 0.1953,-0.9155 0.4293,-0.1779 0.6924,-0.2306 0.8423,-0.2076 z m -278.4418,6.1889 c 2.7848,0.018 7.5929,2.998 14.9536,10.437 9.4132,6.561 21.4823,23.6502 14.6484,35.5834 -20.2264,-0.5903 -40.5269,-46.0912 -29.602,-46.0204 z m 322.1796,77.368 c -13.1972,13.6226 -24.1095,27.1285 -23.2788,47.2412 -8.0576,22.7067 3.9925,43.5324 1.8066,66.6502 -1.6703,5.2643 -4.0377,32.263 -7.6416,47.4364 0.3698,1.4596 0.6637,3.4962 0.8545,6.2134 -2.6297,33.1802 -6.5363,69.8211 10.4981,101.9285 18.5795,36.8074 36.5393,74.476 59.8997,108.3738 8.7013,-0.396 10.5652,-34.7985 10.2783,-47.1923 1.4028,-24.7504 9.695,-64.6903 39.4409,-66.7113 3.8227,-17.8318 2.5346,-37.4784 -0.1831,-55.8592 -5.5332,-20.4629 -10.2499,-24.3094 -12.6465,-49.4506 0.039,-30.3223 -15.3812,-57.7805 -28.0395,-84.5335 -22.6341,-18.4847 -26.0784,-72.0776 -50.9886,-74.0966 z m -119.8851,49.9389 c -9.5183,-0.3706 -17.0454,7.5183 -12.6952,25.7202 -10.578,-20.1861 -19.0081,-33.6986 -40.4419,-12.0483 -31.0151,2.5067 -3.1688,49.4992 15.4419,56.909 19.3152,9.8004 35.3326,28.4596 59.0697,24.5849 23.4743,-8.5315 30.0357,-31.4634 18.4936,-55.432 -6.4974,-16.3913 -25.2091,19.7237 -20.5566,-10.0219 1.9967,-3.6667 4.3868,-5.8797 3.7476,-10.8643 -4.7175,-11.767 -14.6605,-18.5206 -23.0591,-18.8476 z m -11.6943,36.7187 c 32.1629,7.2758 20.8107,53.4692 -8.2885,27.4169 -15.1088,-10.6829 -9.7948,-28.4163 8.2885,-27.4169 z m 195.8493,168.7863 c 0.015,0 0.036,0.01 0.049,0.012 0.01,0 0.031,0.022 0.037,0.024 h 0.012 l 0.012,0.012 0.012,0.012 0.012,0.012 v 0.012 l 0.012,0.012 c 0,0 0,0.032 0,0.037 v 0.012 c 0.022,0.332 -0.7422,1.0836 -1.0742,1.062 h -0.012 c -0.01,-10e-4 -0.032,-0.01 -0.037,-0.012 h -0.012 l -0.012,-0.012 -0.012,-0.012 -0.012,-0.012 v -0.012 l -0.012,-0.012 -0.012,-0.012 c -0.052,-0.133 -0.01,-0.4218 0.1953,-0.9155 0.4293,-0.1779 0.7046,-0.2306 0.8545,-0.2076 z"
       sodipodi:nodetypes="scccccccccccccccccccccccccccccccccccccccccccccccccccccccccccccccssccccccscccccccccccccccccccccccccccccccccccccccccccccccccccccccccccccsccsccccccsccsscccscccccssccsccccccccccccccccccssccscccccccccccccscccscccscccscccccccccccccccccccccscccsc"
       style="opacity:0.5">
      <title
         id="title1-3-0-7">Selection</title>
    </path>
  </g>
</svg>
