<svg viewBox="5.27027027027027 19.97 87.83783783783784 68.31" version="1.1" xmlns="http://www.w3.org/2000/svg" style="max-height: 500px" width="87.83783783783784" height="68.31">
 <path fill-rule="evenodd" d="m11.891 42.348c1.7188-11.18 11.34-19.43 22.648-19.43h30.922c11.309 0 20.93 8.25 22.648 19.43l4.2031 27.328c0.9375 6.0859-3.7695 11.574-9.9297 11.574h-1.1719c-4.5938 0-8.7969-2.5977-10.852-6.707-3.0508-6.1055-9.293-9.9609-16.113-9.9609h-8.4922c-6.8203 0-13.062 3.8555-16.113 9.9609-2.0547 4.1094-6.2578 6.707-10.852 6.707h-1.1719c-6.1602 0-10.867-5.4883-9.9297-11.574zm25.609-2.7656c0-1.8398-1.4922-3.332-3.332-3.332-1.8438 0-3.3359 1.4922-3.3359 3.332v2.918h-2.9141c-1.8438 0-3.3359 1.4922-3.3359 3.332 0 1.8438 1.4922 3.3359 3.3359 3.3359h2.9141v2.9141c0 1.8438 1.4922 3.3359 3.3359 3.3359 1.8398 0 3.332-1.4922 3.332-3.3359v-2.9141h2.918c1.8398 0 3.332-1.4922 3.332-3.3359 0-1.8398-1.4922-3.332-3.332-3.332h-2.918zm28.332 6.668c2.5312 0 4.5859-2.0508 4.5859-4.582s-2.0547-4.5859-4.5859-4.5859-4.582 2.0547-4.582 4.5859 2.0508 4.582 4.582 4.582zm12.918 7.918c0 2.5312-2.0508 4.582-4.582 4.582s-4.5859-2.0508-4.5859-4.582 2.0547-4.5859 4.5859-4.5859 4.582 2.0547 4.582 4.5859z"/>
<text fill="#000000" font-family="Arbeit Regular, Helvetica, Arial-Unicode, Arial, Sans-serif" font-weight="bold" font-size="5.0" y="117.5" x="0.0">Created by Artur Lopato</text><text fill="#000000" font-family="Arbeit Regular, Helvetica, Arial-Unicode, Arial, Sans-serif" font-weight="bold" font-size="5.0" y="122.5" x="0.0">from Noun Project</text></svg>