<?xml version="1.0" encoding="UTF-8" standalone="no"?>
<svg
   version="1.1"
   viewBox="-5 -10 90.625 64.844002"
   id="svg6"
   sodipodi:docname="letter.svg"
   inkscape:export-filename="letter.png"
   inkscape:export-xdpi="69.818184"
   inkscape:export-ydpi="69.818184"
   inkscape:version="1.4.3 (0d15f75042, 2025-12-25)"
   width="90.625"
   height="64.844002"
   xmlns:inkscape="http://www.inkscape.org/namespaces/inkscape"
   xmlns:sodipodi="http://sodipodi.sourceforge.net/DTD/sodipodi-0.dtd"
   xmlns="http://www.w3.org/2000/svg"
   xmlns:svg="http://www.w3.org/2000/svg">
  <defs
     id="defs6" />
  <sodipodi:namedview
     id="namedview6"
     pagecolor="#505050"
     bordercolor="#eeeeee"
     borderopacity="1"
     inkscape:showpageshadow="0"
     inkscape:pageopacity="0"
     inkscape:pagecheckerboard="false"
     inkscape:deskcolor="#505050"
     inkscape:zoom="5.7032897"
     inkscape:cx="40.765946"
     inkscape:cy="35.418156"
     inkscape:window-width="1920"
     inkscape:window-height="1132"
     inkscape:window-x="0"
     inkscape:window-y="0"
     inkscape:window-maximized="1"
     inkscape:current-layer="svg6"
     inkscape:clip-to-page="false"
     showgrid="true"
     borderlayer="true" />
  <path
     d="m 61.1405,36.875 c 0.4375,0.45312 1.0469,0.71875 1.6875,0.71875 0.6406,0 1.2656,-0.26562 1.6875,-0.71875 l 11.391,-12.031 c 3.4375,-3.6406 3.4375,-9.5469 0,-13.172 C 74.2971,9.9845 72.094,9.0158 69.6877,8.9532 67.3596,8.90633 65.0783,9.73445 63.4065,11.3282 L 62.81275,11.90632 62.219,11.3282 c -1.6719,-1.625 -3.8438,-2.5156 -6.1406,-2.5156 -2.4219,0 -4.7031,0.98438 -6.4219,2.7969 -3.4375,3.625 -3.4375,9.5312 0,13.172 z M 51.953,13.766 c 1.1094,-1.1719 2.5781,-1.8125 4.1406,-1.8125 1.4688,0 2.875,0.57812 3.9531,1.625 l 2.75,2.6719 2.7812,-2.6562 c 1.0625,-1.0156 2.4688,-1.5625 4.0469,-1.5156 1.5312,0.03125 3,0.67188 4.0156,1.75 2.3125,2.4531 2.3125,6.4219 0,8.875 l -10.812,11.422 -10.875,-11.484 c -2.3125,-2.4531 -2.3125,-6.4375 0,-8.875 z"
     id="path1" />
  <path
     d="m 84.0625,-10 h -87.5 C -4.29688,-10 -5,-9.29688 -5,-8.4375 v 61.719 c 0,0.85938 0.70312,1.5625 1.5625,1.5625 h 87.5 c 0.85938,0 1.5625,-0.70312 1.5625,-1.5625 V -8.4375 C 85.625,-9.29688 84.92188,-10 84.0625,-10 Z M 82.5,51.719 H -1.875 V -6.875 H 82.5 Z"
     id="path2" />
  <path
     d="m 3.9065,13 h 37.453 c 0.85938,0 1.5625,-0.70312 1.5625,-1.5625 0,-0.85938 -0.70312,-1.5625 -1.5625,-1.5625 H 3.9065 C 3.04712,9.875 2.344,10.57812 2.344,11.4375 2.344,12.29688 3.04712,13 3.9065,13 Z"
     id="path3" />
  <path
     d="m 3.6405,24.422 h 37.453 c 0.85938,0 1.5625,-0.70312 1.5625,-1.5625 0,-0.85938 -0.70312,-1.5625 -1.5625,-1.5625 H 3.6405 c -0.85938,0 -1.5625,0.70312 -1.5625,1.5625 0,0.85938 0.70312,1.5625 1.5625,1.5625 z"
     id="path4" />
  <path
     d="m 3.6405,36.922 h 37.453 c 0.85938,0 1.5625,-0.70312 1.5625,-1.5625 0,-0.85938 -0.70312,-1.5625 -1.5625,-1.5625 H 3.6405 c -0.85938,0 -1.5625,0.70312 -1.5625,1.5625 0,0.85938 0.70312,1.5625 1.5625,1.5625 z"
     id="path5" />
</svg>
