<svg width="75" height="75" xmlns="http://www.w3.org/2000/svg" version="1.1">
 <g>
  <title>Layer 1</title>
  <path d="m60.88986,29.66974l-4.49377,18.8632c-1.68641,7.08768 -5.3724,12.05014 -9.84962,14.87788c-2.95549,1.86638 -6.25093,2.80126 -9.54284,2.80126s-6.58753,-0.93489 -9.54284,-2.80126c-4.47361,-2.82443 -8.15959,-7.79046 -9.84962,-14.87788l-4.49377,-18.8632l-0.35345,31.17812c-0.04713,4.32291 2.6525,8.20817 6.80632,11.11237c4.6083,3.21897 10.9604,5.22122 17.43633,5.35056c6.46637,-0.12929 12.8183,-2.13158 17.42685,-5.35056c4.15382,-2.90403 6.85346,-6.78598 6.80632,-11.11237l-0.35345,-31.17473l0.00355,-0.00339l-0.00001,0zm-47.61081,-14.54012l0,0.29505c0.01346,1.24651 0.20533,2.52613 0.60927,3.83222l0.06059,0.19227l6.75927,28.37075c1.48115,6.22569 4.64862,10.54207 8.46921,12.95566c2.42699,1.53158 5.12999,2.30064 7.82627,2.30064c2.69964,0 5.40264,-0.7691 7.82627,-2.30064c3.82058,-2.41003 6.98815,-6.72632 8.46921,-12.95566l6.79288,-28.47683c0.42077,-1.33596 0.62274,-2.64545 0.6362,-3.95154l0,-0.27515c-0.05722,-4.03114 -2.06678,-7.66783 -5.07277,-10.62185c-3.15067,-3.09626 -7.36852,-5.44671 -11.61618,-6.74618c-1.83791,-0.56025 -3.68253,-0.92487 -5.44306,-1.06414l0,10.492c1.36998,0.30167 2.59528,0.98462 3.55801,1.93266c1.31949,1.29947 2.13753,3.09295 2.13753,5.0688l0,9.26908c0,1.97246 -0.81798,3.76924 -2.13753,5.0688s-3.14059,2.1051 -5.14688,2.1051c-2.00284,0 -3.82731,-0.80557 -5.14688,-2.1051s-2.13753,-3.09626 -2.13753,-5.0688l0,-9.26908c0,-1.97577 0.81798,-3.76924 2.13753,-5.0688c0.95937,-0.94481 2.18467,-1.63104 3.55465,-1.93266l0,-10.492c-1.76052,0.13923 -3.60515,0.50389 -5.44306,1.06414c-4.24809,1.29947 -8.46921,3.64992 -11.61618,6.74618c-2.99927,2.95046 -5.00883,6.58375 -5.07277,10.63118l-0.00407,0.0039l0.00002,0zm26.62328,-3.79912c-0.73046,-0.71938 -1.73691,-1.17353 -2.94541,-1.19008c-1.11086,0.01326 -2.11728,0.46743 -2.84777,1.19008c-0.74392,0.72932 -1.20841,1.74374 -1.20841,2.8543l0,9.26908c0,1.10725 0.46453,2.12165 1.20841,2.8543c0.74056,0.73263 1.77061,1.18677 2.89827,1.18677s2.15434,-0.45748 2.89827,-1.18677c0.74392,-0.73263 1.20505,-1.74705 1.20505,-2.8543l0,-9.26908c0,-1.11056 -0.46453,-2.12165 -1.20505,-2.8543l-0.00336,0z" id="svg_1" transform="rotate(-45, 37.0018, 36.9975)"/>
 </g>

</svg>